<svg width="30" height="30" viewBox="0 0 30 30" fill="none" xmlns="http://www.w3.org/2000/svg">
<path d="M24.1073 0H5.89268C4.32976 0.000108494 2.83089 0.621071 1.72581 1.72629C0.620717 2.8315 -7.23281e-05 4.33044 6.3206e-09 5.89336V24.1066C-7.23281e-05 25.6696 0.620717 27.1685 1.72581 28.2737C2.83089 29.3789 4.32976 29.9999 5.89268 30H24.1073C25.6702 29.9999 27.1691 29.3789 28.2742 28.2737C29.3793 27.1685 30.0001 25.6696 30 24.1066V5.89336C30.0001 4.33044 29.3793 2.8315 28.2742 1.72629C27.1691 0.621071 25.6702 0.000108494 24.1073 0ZM15 5.53977C15.4046 5.53977 15.8 5.65974 16.1364 5.88449C16.4728 6.10925 16.7349 6.42871 16.8898 6.80247C17.0446 7.17622 17.0851 7.5875 17.0062 7.98428C16.9272 8.38106 16.7324 8.74552 16.4464 9.03158C16.1603 9.31764 15.7958 9.51245 15.399 9.59138C15.0023 9.6703 14.591 9.6298 14.2172 9.47498C13.8435 9.32017 13.524 9.05799 13.2993 8.72162C13.0745 8.38525 12.9545 7.98978 12.9545 7.58523C12.9545 7.04274 13.17 6.52247 13.5536 6.13887C13.9372 5.75528 14.4575 5.53977 15 5.53977ZM17.8125 24.5455H12.358C11.9963 24.5455 11.6494 24.4018 11.3937 24.1461C11.138 23.8903 10.9943 23.5435 10.9943 23.1818C10.9943 22.8202 11.138 22.4733 11.3937 22.2176C11.6494 21.9618 11.9963 21.8182 12.358 21.8182H13.6364V13.6364H12.358C11.9963 13.6364 11.6494 13.4927 11.3937 13.237C11.138 12.9812 10.9943 12.6344 10.9943 12.2727C10.9943 11.9111 11.138 11.5642 11.3937 11.3085C11.6494 11.0528 11.9963 10.9091 12.358 10.9091H16.3636V21.8182H17.8125C18.1742 21.8182 18.521 21.9618 18.7767 22.2176C19.0325 22.4733 19.1761 22.8202 19.1761 23.1818C19.1761 23.5435 19.0325 23.8903 18.7767 24.1461C18.521 24.4018 18.1742 24.5455 17.8125 24.5455Z" fill="#CECAE6"/>
</svg>
