<svg width="18" height="18" viewBox="0 0 18 18" fill="none" xmlns="http://www.w3.org/2000/svg">
<path d="M17.3125 11.1294H10.5112V12.366H17.3125V11.1294Z" fill="#595959"/>
<path d="M17.3125 13.6027H10.5112V14.8393H17.3125V13.6027Z" fill="#595959"/>
<path d="M10.5112 16.0758V17.3124H16.6942C17.0652 17.3124 17.3125 17.0651 17.3125 16.6941V16.0758H10.5112Z" fill="#595959"/>
<path d="M9.27455 10.5112C9.27455 10.1402 9.52188 9.89286 9.89286 9.89286H17.3125V8.65625H11.1295C10.7585 8.65625 10.5112 8.40893 10.5112 8.03795C10.5112 7.66696 10.7585 7.41964 11.1295 7.41964H17.3125V0.618304C17.3125 0.247321 17.0652 0 16.6942 0H8.03795V8.03795C8.03795 8.40893 7.79063 8.65625 7.41964 8.65625H0V16.6942C0 17.0652 0.247321 17.3125 0.618304 17.3125H4.94643V11.7478H3.09152C2.72054 11.7478 2.47321 11.5004 2.47321 11.1295C2.47321 10.7585 2.72054 10.5112 3.09152 10.5112H5.56473C5.93571 10.5112 6.18304 10.7585 6.18304 11.1295V17.3125H9.27455V10.5112Z" fill="#595959"/>
<path d="M6.80134 7.41964V0H0.618304C0.247321 0 0 0.247321 0 0.618304V7.41964H6.80134Z" fill="#595959"/>
</svg>
