<svg width="26" height="25" viewBox="0 0 26 25" fill="none" xmlns="http://www.w3.org/2000/svg">
<path d="M23.6755 24.1882C20.8808 24.1882 18.1196 23.5787 15.3919 22.3598C12.6642 21.1408 10.1825 19.4139 7.94671 17.179C5.71092 14.9432 3.98399 12.4615 2.76593 9.73379C1.54787 7.00612 0.938394 4.24492 0.9375 1.45018C0.9375 1.04773 1.07165 0.712364 1.33994 0.444069C1.60824 0.175774 1.94361 0.041626 2.34605 0.041626H7.77903C8.09204 0.041626 8.37151 0.14805 8.61745 0.360897C8.86339 0.573745 9.00871 0.825048 9.05343 1.11481L9.92539 5.80997C9.97011 6.1677 9.95893 6.46953 9.89185 6.71547C9.82478 6.96141 9.70181 7.17381 9.52295 7.35267L6.26987 10.6393C6.71703 11.4665 7.2478 12.2656 7.8622 13.0365C8.4766 13.8074 9.15315 14.551 9.89185 15.2674C10.5849 15.9605 11.3116 16.6035 12.0718 17.1964C12.8319 17.7894 13.6368 18.3313 14.4864 18.8223L17.6389 15.6698C17.8401 15.4686 18.103 15.3175 18.4277 15.2164C18.7523 15.1153 19.0707 15.0876 19.3828 15.1332L24.0109 16.0723C24.3239 16.1617 24.581 16.324 24.7822 16.5592C24.9835 16.7944 25.0841 17.0569 25.0841 17.3467V22.7796C25.0841 23.1821 24.9499 23.5175 24.6816 23.7858C24.4133 24.054 24.078 24.1882 23.6755 24.1882Z" fill="white"/>
</svg>
