<svg width="21" height="21" viewBox="0 0 21 21" fill="none" xmlns="http://www.w3.org/2000/svg">
<g clip-path="url(#clip0_1_107)">
<path d="M10.1075 20.7104C12.7414 20.7104 15.2673 19.6331 17.1297 17.7155C18.9921 15.7979 20.0383 13.1972 20.0383 10.4853C20.0383 7.77345 18.9921 5.17267 17.1297 3.2551C15.2673 1.33753 12.7414 0.260254 10.1075 0.260254C7.47374 0.260254 4.9478 1.33753 3.08542 3.2551C1.22303 5.17267 0.176758 7.77345 0.176758 10.4853C0.176758 13.1972 1.22303 15.7979 3.08542 17.7155C4.9478 19.6331 7.47374 20.7104 10.1075 20.7104ZM8.55586 13.6806H9.48687V11.1244H8.55586C8.03992 11.1244 7.62485 10.697 7.62485 10.1658C7.62485 9.63455 8.03992 9.20717 8.55586 9.20717H10.4179C10.9338 9.20717 11.3489 9.63455 11.3489 10.1658V13.6806H11.6592C12.1752 13.6806 12.5902 14.108 12.5902 14.6392C12.5902 15.1705 12.1752 15.5978 11.6592 15.5978H8.55586C8.03992 15.5978 7.62485 15.1705 7.62485 14.6392C7.62485 14.108 8.03992 13.6806 8.55586 13.6806ZM10.1075 5.37278C10.4368 5.37278 10.7525 5.50744 10.9853 5.74713C11.2181 5.98683 11.3489 6.31193 11.3489 6.65091C11.3489 6.98989 11.2181 7.31499 10.9853 7.55468C10.7525 7.79438 10.4368 7.92904 10.1075 7.92904C9.77832 7.92904 9.46258 7.79438 9.22978 7.55468C8.99698 7.31499 8.8662 6.98989 8.8662 6.65091C8.8662 6.31193 8.99698 5.98683 9.22978 5.74713C9.46258 5.50744 9.77832 5.37278 10.1075 5.37278Z" fill="#595959"/>
</g>
<defs>
<clipPath id="clip0_1_107">
<rect width="19.8616" height="20.4501" fill="white" transform="translate(0.176758 0.260254)"/>
</clipPath>
</defs>
</svg>
