<svg width="25" height="19" viewBox="0 0 25 19" fill="none" xmlns="http://www.w3.org/2000/svg">
<path d="M22.9167 0H7.29167C6.57292 0 6.01042 0.369445 5.63542 0.928889L0 9.5L5.63542 18.0606C6.01042 18.62 6.57292 19 7.29167 19H22.9167C23.4692 19 23.9991 18.7776 24.3898 18.3817C24.7805 17.9858 25 17.4488 25 16.8889V2.11111C25 1.55121 24.7805 1.01424 24.3898 0.61833C23.9991 0.22242 23.4692 0 22.9167 0ZM19.7917 13.2894L18.3229 14.7778L14.5833 10.9883L10.8437 14.7778L9.375 13.2894L13.1146 9.5L9.375 5.71056L10.8437 4.22222L14.5833 8.01167L18.3229 4.22222L19.7917 5.71056L16.0521 9.5" fill="#424242"/>
</svg>
