<svg width="30" height="30" viewBox="0 0 30 30" fill="none" xmlns="http://www.w3.org/2000/svg">
<g clip-path="url(#clip0_512_297)">
<path d="M0.455078 15.4546C0.455078 18.3315 1.30815 21.1437 2.90643 23.5357C4.5047 25.9276 6.77639 27.792 9.43423 28.8929C12.0921 29.9938 15.0167 30.2818 17.8382 29.7206C20.6598 29.1594 23.2515 27.774 25.2857 25.7398C27.3199 23.7056 28.7053 21.1139 29.2665 18.2923C29.8277 15.4708 29.5397 12.5462 28.4388 9.88833C27.3379 7.2305 25.4735 4.95881 23.0816 3.36053C20.6896 1.76226 17.8774 0.90918 15.0005 0.90918C11.1428 0.90918 7.44315 2.44164 4.71534 5.16945C1.98754 7.89725 0.455078 11.5969 0.455078 15.4546Z" fill="#CECAE6"/>
<path d="M15.8778 18.5636C16.3324 18.5227 17.2188 17.6909 17.696 17.6545C18.1479 17.6138 18.5986 17.7435 18.9597 18.0181L20.1778 18.9272L20.9097 19.5091C21.0335 19.6021 21.1372 19.7192 21.2145 19.8534C21.2919 19.9877 21.3411 20.1362 21.3594 20.29C21.3777 20.4438 21.3646 20.5997 21.3208 20.7483C21.2771 20.8969 21.2037 21.0351 21.1051 21.1545L19.6915 22.9727C19.6386 23.0412 19.5691 23.0952 19.4895 23.1294C19.41 23.1636 19.3231 23.1769 19.2369 23.1682C13.1006 22.6182 8.21875 17.5954 8.21875 11.4954C8.21875 10.4186 8.3718 9.34732 8.6733 8.31361C8.68936 8.26227 8.71893 8.21619 8.75892 8.1802C8.7989 8.14422 8.84783 8.11965 8.90057 8.10906L11.5869 7.73179C11.8954 7.66546 12.2177 7.72381 12.4833 7.89411C12.749 8.06441 12.9366 8.33285 13.0051 8.64088L13.1824 9.54542L13.4778 11.0272C13.5657 11.4638 13.4792 11.9173 13.2369 12.2909C12.9915 12.6727 11.8324 13.0545 11.5824 13.4409C12.2692 15.6735 13.8141 17.5421 15.8778 18.6363V18.5636Z" stroke="white" stroke-width="2" stroke-linecap="round" stroke-linejoin="round"/>
</g>
<defs>
<clipPath id="clip0_512_297">
<rect width="30" height="30" fill="white"/>
</clipPath>
</defs>
</svg>
