<svg width="58" height="58" viewBox="0 0 58 58" fill="none" xmlns="http://www.w3.org/2000/svg">
<circle cx="30" cy="28" r="24" fill="white"/>
<path d="M18.56 43.5L29 33.06L39.44 43.5L43.5 39.44L33.06 29L43.5 18.56L39.44 14.5L29 24.94L18.56 14.5L14.5 18.56L24.94 29L14.5 39.44L18.56 43.5ZM29 58C24.9883 58 21.2183 57.2383 17.69 55.7148C14.1617 54.1913 11.0925 52.1256 8.4825 49.5175C5.8725 46.9075 3.80673 43.8383 2.2852 40.31C0.763667 36.7817 0.00193333 33.0117 0 29C0 24.9883 0.761734 21.2183 2.2852 17.69C3.80867 14.1617 5.87443 11.0925 8.4825 8.4825C11.0925 5.8725 14.1617 3.80673 17.69 2.2852C21.2183 0.763667 24.9883 0.00193333 29 0C33.0117 0 36.7817 0.761734 40.31 2.2852C43.8383 3.80867 46.9075 5.87443 49.5175 8.4825C52.1275 11.0925 54.1942 14.1617 55.7177 17.69C57.2412 21.2183 58.0019 24.9883 58 29C58 33.0117 57.2383 36.7817 55.7148 40.31C54.1913 43.8383 52.1256 46.9075 49.5175 49.5175C46.9075 52.1275 43.8383 54.1942 40.31 55.7177C36.7817 57.2412 33.0117 58.0019 29 58Z" fill="#FF4949"/>
</svg>
