<svg width="29" height="24" viewBox="0 0 29 24" fill="none" xmlns="http://www.w3.org/2000/svg">
<path d="M3.21379 23.3556C2.43527 23.3556 1.76858 23.0802 1.21371 22.5294C0.658835 21.9786 0.381871 21.3173 0.382815 20.5454V3.68443C0.382815 2.91164 0.660251 2.24984 1.21512 1.69905C1.76999 1.14826 2.43622 0.873333 3.21379 0.87427H25.8616C26.6401 0.87427 27.3068 1.14967 27.8617 1.70046C28.4166 2.25125 28.6935 2.91257 28.6926 3.68443V20.5454C28.6926 21.3182 28.4151 21.98 27.8603 22.5308C27.3054 23.0816 26.6392 23.3565 25.8616 23.3556H3.21379ZM14.5377 13.52L25.8616 6.49459V3.68443L14.5377 10.7098L3.21379 3.68443V6.49459L14.5377 13.52Z" fill="white"/>
</svg>
