<svg width="30" height="30" viewBox="0 0 30 30" fill="none" xmlns="http://www.w3.org/2000/svg">
<path d="M0.00786544 14.9707C0.00786544 16.0254 0.789182 16.8516 1.67467 16.8516H3.34148L3.30502 26.2383C3.30502 26.3965 3.31544 26.5547 3.33106 26.7129V27.6562C3.33106 28.9512 4.26344 30 5.41457 30H6.24798C6.30528 30 6.36257 30 6.41987 29.9941C6.49279 30 6.56571 30 6.63864 30H8.33149H9.5816C10.7327 30 11.6651 28.9512 11.6651 27.6562V26.25V22.5C11.6651 21.4629 12.41 20.625 13.3319 20.625H16.6655C17.5875 20.625 18.3323 21.4629 18.3323 22.5V26.25V27.6562C18.3323 28.9512 19.2647 30 20.4159 30H21.666H23.3276C23.4057 30 23.4838 29.9941 23.562 29.9883C23.6245 29.9941 23.687 30 23.7495 30H24.5829C25.734 30 26.6664 28.9512 26.6664 27.6562V21.0938C26.6664 21.041 26.6664 20.9824 26.6612 20.9297V16.8516H28.3332C29.2708 16.8516 30 16.0313 30 14.9707C30 14.4434 29.8437 13.9746 29.4791 13.5645L16.1238 0.46875C15.7592 0.0585938 15.3425 0 14.9779 0C14.6133 0 14.1966 0.117188 13.884 0.410156L0.580831 13.5645C0.164129 13.9746 -0.0442223 14.4434 0.00786544 14.9707Z" fill="#FF4713"/>
</svg>
