<svg width="13" height="20" viewBox="0 0 13 20" fill="none" xmlns="http://www.w3.org/2000/svg">
<g clip-path="url(#clip0_1_98)">
<path d="M7.18007 18.736C8.8559 16.4417 12.6779 10.881 12.6779 7.75754C12.6779 3.9694 9.86857 0.895996 6.40587 0.895996C2.94316 0.895996 0.133789 3.9694 0.133789 7.75754C0.133789 10.881 3.95584 16.4417 5.63166 18.736C6.03346 19.2828 6.77827 19.2828 7.18007 18.736ZM6.40587 5.47036C6.96035 5.47036 7.49213 5.71133 7.88421 6.14026C8.27629 6.56919 8.49656 7.15094 8.49656 7.75754C8.49656 8.36414 8.27629 8.94589 7.88421 9.37482C7.49213 9.80375 6.96035 10.0447 6.40587 10.0447C5.85138 10.0447 5.3196 9.80375 4.92752 9.37482C4.53544 8.94589 4.31517 8.36414 4.31517 7.75754C4.31517 7.15094 4.53544 6.56919 4.92752 6.14026C5.3196 5.71133 5.85138 5.47036 6.40587 5.47036Z" fill="#595959"/>
</g>
<defs>
<clipPath id="clip0_1_98">
<rect width="12.5442" height="18.2975" fill="white" transform="translate(0.133789 0.895996)"/>
</clipPath>
</defs>
</svg>
