<svg width="100" height="49" viewBox="0 0 100 49" fill="none" xmlns="http://www.w3.org/2000/svg">
<path d="M2.53488 15.8407C3.05897 9.67837 0 7.80566 0 7.80566C0 7.80566 0.716612 10.42 0.192523 17.1265C-0.165783 21.6989 1.46531 25.247 2.41723 27.4398C2.55092 27.7492 3.01084 27.5091 2.92527 27.1837C2.06962 23.9451 2.1017 20.936 2.53488 15.8407Z" fill="#FF4713"/>
<path d="M17.2046 44.9931C21.2209 41.3437 26.9217 30.4649 27.0286 22.2218C26.1035 22.4939 24.2691 23.4809 23.5846 26.5327C23.1942 28.2774 22.0979 32.4123 18.0442 32.0602C12.4343 31.564 13.2472 20.9733 22.0391 21.9337C26.1944 22.3872 26.8682 19.4047 26.8682 19.0045C25.9591 19.4207 24.5847 19.25 23.2958 19.0899C15.3757 18.1402 11.568 22.6699 11.568 27.8292C11.568 30.9291 13.5895 33.5327 15.8677 34.9839C17.0763 35.7576 16.2046 36.5098 15.3061 35.8589C12.9103 34.1356 10.1134 31.8521 10.1134 26.9969C10.1134 18.8818 18.4079 15.3605 20.3545 13.9146C23.2477 11.7645 24.6381 9.98779 23.9322 6.82392C22.7931 8.92605 19.9802 10.7614 17.8838 11.8712C12.2151 14.875 7.77637 19.25 7.77637 25.6737C7.77637 30.7263 10.0011 33.506 12.675 35.6562C13.2847 36.1417 12.6429 36.8246 11.8621 36.2004C7.61059 32.7804 6.2041 28.9923 6.2041 24.1265C6.20945 14.939 17.8303 6.62118 12.6055 0C12.675 6.7599 3.91522 12.6661 3.91522 23.8544C3.91522 28.8803 5.93671 33.8635 11.568 37.8063C14.889 40.1326 15.3596 42.7896 14.873 45.1958C14.6591 46.4923 16.2367 45.8734 17.2046 44.9931Z" fill="#FF4713"/>
<path d="M47.1895 19.0046C46.4729 19.0046 45.8419 19.5328 45.7456 20.2478C45.6173 21.1975 46.4783 22.0191 47.4142 21.8644C48.2538 21.731 48.8099 20.8667 48.58 20.0557C48.4142 19.4261 47.8259 19.0046 47.1895 19.0046Z" fill="white"/>
<path d="M94.9189 26.9327C94.9189 24.1049 93.6033 23.0378 90.7369 23.0378C88.6031 23.0378 86.603 23.8221 86.603 24.6118C86.603 24.8839 86.8597 25.5881 87.2608 26.0577C88.2715 25.4814 89.1379 25.0813 90.293 25.0813C92.1166 25.0813 92.1487 25.9189 92.1487 26.954C89.1593 26.954 85.9666 27.5782 85.9666 30.55C85.9666 32.5401 87.1538 33.7459 89.2341 33.7459C90.6781 33.7459 91.4749 33.2124 92.3626 32.6362C92.7423 33.8526 94.459 33.6765 95.3574 33.2817C95.0205 32.7375 94.9243 32.156 94.9243 30.8541V26.9327H94.9189ZM92.1434 30.9128C91.5605 31.4624 90.9401 31.7665 90.1807 31.7665C88.3785 31.7665 88.3036 29.7657 89.3732 29.0561C90.0417 28.6026 91.277 28.4692 92.1434 28.4692V30.9128Z" fill="white"/>
<path d="M67.0518 26.9327C67.0518 24.1049 65.7362 23.0378 62.8697 23.0378C60.7306 23.0378 58.7305 23.8221 58.7305 24.6118C58.7305 24.8839 58.9872 25.5881 59.3883 26.0577C60.399 25.4814 61.2654 25.0813 62.4152 25.0813C64.2441 25.0813 64.2709 25.9189 64.2709 26.954C61.2814 26.954 58.0888 27.5782 58.0888 30.55C58.0888 32.5401 59.276 33.7459 61.3563 33.7459C62.8002 33.7459 63.5971 33.2124 64.4848 32.6362C64.8645 33.8526 66.5812 33.6765 67.4796 33.2817C67.1427 32.7375 67.0464 32.156 67.0464 30.8541V26.9327H67.0518ZM64.2762 30.9128C63.6933 31.4624 63.073 31.7665 62.3136 31.7665C60.5114 31.7665 60.4365 29.7657 61.5061 29.0561C62.1745 28.6026 63.4099 28.4692 64.2762 28.4692V30.9128Z" fill="white"/>
<path d="M38.1779 19.0046H34.3381V33.4955C34.4932 33.5435 35.274 33.5968 35.4558 33.5808C36.6484 33.5435 37.2367 33.0633 37.2367 31.9909V28.3202H38.3223C41.6326 28.3202 44.0819 26.8583 44.0819 23.3423C44.0766 20.0024 41.2583 19.0046 38.1779 19.0046ZM37.2367 26.2554V21.1441C39.2742 20.9574 41.0925 21.3255 41.0925 23.4863C41.0925 26.2074 39.2047 26.2554 37.2367 26.2554Z" fill="white"/>
<path d="M48.6386 31.9854C48.6386 33.0632 48.0503 33.5434 46.8631 33.5754C46.6759 33.5914 45.8952 33.538 45.7401 33.49V24.8467C45.7401 23.769 46.3283 23.2888 47.5209 23.2568C47.7027 23.2408 48.4835 23.2942 48.6439 23.3422V31.9854H48.6386Z" fill="white"/>
<path d="M81.4479 28.0318C81.4479 26.73 81.4212 26.3725 81.3142 26.0897C80.865 24.8573 78.2552 25.2308 78.2552 26.4952V31.9853C78.2552 33.0631 77.667 33.5432 76.4744 33.5753C76.2926 33.5913 75.5118 33.5432 75.3513 33.4899V28.0318C75.3513 26.73 75.3246 26.3725 75.2177 26.0897C74.7684 24.8573 72.1587 25.2308 72.1587 26.4952V31.9853C72.1587 33.0631 71.5704 33.5432 70.3778 33.5753C70.196 33.5913 69.4152 33.5432 69.2601 33.4899V23.342C70.4474 23.1713 71.7629 23.1873 72.0089 24.3504C73.1641 22.7071 77.1108 22.3443 77.8648 24.7933C78.5654 23.4594 80.1109 22.9312 81.5762 23.0593C84.0737 23.2727 84.325 25.3054 84.3357 27.7971V31.9853C84.3357 33.0631 83.7475 33.5432 82.5549 33.5753C82.3731 33.5913 81.5923 33.5432 81.4318 33.4899V28.0318H81.4479Z" fill="white"/>
<path d="M50.8733 33.4952C51.0284 33.5432 51.8092 33.5966 51.991 33.5806C53.1836 33.5485 53.7718 33.0684 53.7718 31.9906V26.8527C53.7718 25.7376 55.4511 24.948 56.9057 26.1751C57.2586 25.5775 57.6062 24.6492 57.6062 24.0996C57.6062 22.9205 55.1034 22.3976 53.6381 24.3451C53.3707 23.23 52.0124 23.1606 50.868 23.3473V33.4952H50.8733Z" fill="white"/>
<path d="M100 19.0846C99.8663 19.0366 99.2513 18.9993 99.0213 18.9993C97.7432 18.9993 97.1015 19.4741 97.1015 20.5945V33.4901C97.2566 33.5381 98.0373 33.5915 98.2245 33.5755C99.4117 33.5435 100 33.0633 100 31.9855V19.0846Z" fill="white"/>
<path d="M40.7182 44.9931C40.8251 45.1745 40.8626 45.2812 40.8626 45.4093C40.8626 45.7241 40.5898 45.9748 40.2583 45.9748C40.023 45.9748 39.8786 45.8575 39.7181 45.596L38.1245 42.8377C37.9266 42.8483 37.702 42.8643 37.4774 42.8643H35.5682V45.3613C35.5682 45.6921 35.2901 45.9748 34.9478 45.9748C34.6056 45.9748 34.3435 45.6867 34.3435 45.3613V37.8438C34.3435 37.513 34.6056 37.2249 34.9478 37.2249H37.4506C38.6111 37.2249 39.4293 37.4596 40.0604 37.9985C40.6166 38.484 40.8893 39.2096 40.8893 40.0366C40.8893 40.8902 40.6005 41.6159 40.0443 42.1014C39.8197 42.2988 39.5737 42.4535 39.2689 42.5762L40.7182 44.9931ZM39.1352 41.4024C39.4668 41.109 39.6486 40.6822 39.6486 40.0473C39.6486 39.4177 39.4614 38.9855 39.1352 38.6921C38.7448 38.3506 38.0817 38.2332 37.3169 38.2332H35.5628V41.8613H37.3169C38.1084 41.8666 38.7234 41.7439 39.1352 41.4024Z" fill="white"/>
<path d="M56.4833 45.3984V37.1553C56.4833 36.8405 56.7453 36.5791 57.0608 36.5791C57.3764 36.5791 57.6384 36.8459 57.6384 37.1553V45.3984C57.6384 45.7186 57.3764 45.9747 57.0608 45.9747C56.7453 45.98 56.4833 45.7186 56.4833 45.3984Z" fill="white"/>
<path d="M65.3673 48.4665C65.3673 48.3598 65.394 48.2691 65.4582 48.109L66.4048 45.9802L63.8753 40.3834C63.8057 40.2233 63.7843 40.1326 63.7843 40.0259C63.7843 39.6951 64.0357 39.4871 64.3405 39.4871C64.5919 39.4871 64.763 39.6311 64.87 39.8552L66.2925 43.0511C66.5973 43.7233 66.838 44.3422 66.9663 44.7691H66.977C67.1214 44.3262 67.33 43.7447 67.6241 43.0511L68.9718 39.8712C69.0787 39.6365 69.2231 39.4924 69.4852 39.4924C69.79 39.4924 70.0413 39.7005 70.0413 40.0206C70.0413 40.122 70.0146 40.2127 69.9451 40.3727L66.4369 48.6159C66.3299 48.8506 66.1855 49 65.9235 49C65.6187 48.9893 65.3673 48.7813 65.3673 48.4665Z" fill="white"/>
<path d="M42.8315 45.1903C41.0185 43.3763 41.8368 39.4175 44.9813 39.4175C46.7354 39.4175 47.9707 40.7727 47.9707 42.4586C47.9707 42.8641 47.7996 43.0349 47.4306 43.0349H43.0935C43.1791 43.9952 43.7513 44.9929 45.1364 44.9929C45.6926 44.9929 46.1899 44.8489 46.8477 44.4967C47.0723 44.3794 47.19 44.326 47.3397 44.326C47.6017 44.326 47.7836 44.4967 47.7836 44.7635C47.7836 44.9716 47.7087 45.1317 47.3397 45.3931C46.8263 45.7612 45.9653 46.0493 45.1631 46.0493C44.0829 46.044 43.3769 45.7292 42.8315 45.1903ZM46.8263 42.1385C46.7461 41.1408 46.0616 40.4525 44.992 40.4525C43.9385 40.4525 43.2005 41.0714 43.0828 42.1385H46.8263Z" fill="white"/>
<path d="M48.8037 42.7574C48.8037 40.6286 50.2691 39.4175 51.713 39.4175C52.5472 39.4175 53.1301 39.7536 53.7398 40.0791V40.0684C53.7398 39.7536 54.0072 39.4868 54.3174 39.4868C54.6329 39.4868 54.8949 39.7536 54.8949 40.0684V45.4038C54.8949 45.7185 54.6329 45.98 54.3174 45.98C54.0018 45.98 53.7398 45.7132 53.7398 45.4038V45.3611C53.0767 45.7185 52.5151 46.044 51.6595 46.044C49.9589 46.044 48.8037 44.7048 48.8037 42.7574ZM53.5954 44.5341C53.7131 44.4647 53.7398 44.4167 53.7398 44.2727V41.1942C53.7398 41.0341 53.7131 40.9807 53.5847 40.9167C53.0713 40.6553 52.467 40.4846 51.9215 40.4846C50.7129 40.4846 49.9963 41.2102 49.9963 42.7467C49.9963 44.3367 50.7129 44.9823 51.8574 44.9823C52.4403 44.9823 53.1515 44.7795 53.5954 44.5341Z" fill="white"/>
<path d="M60.136 45.5853C59.767 45.2278 59.6066 44.769 59.6066 44.0167V40.4313H58.8044C58.553 40.4313 58.3445 40.2339 58.3445 39.9831C58.3445 39.727 58.553 39.5243 58.8044 39.5243H59.6066V38.0784C59.6066 37.7636 59.874 37.5022 60.1841 37.5022C60.4997 37.5022 60.7671 37.7636 60.7671 38.0784V39.5243H62.6495C62.9009 39.5243 63.0987 39.7324 63.0987 39.9831C63.0987 40.2286 62.9009 40.4313 62.6495 40.4313H60.7671V44.006C60.7671 44.3848 60.8205 44.6089 60.9596 44.785C61.4355 45.3505 62.6602 44.7743 63.0185 44.7743C63.2699 44.7743 63.4677 44.945 63.4677 45.2065C63.4677 45.4305 63.3394 45.6013 63.0185 45.74C62.2003 46.1241 60.7938 46.2148 60.136 45.5853Z" fill="white"/>
</svg>
