<svg width="194" height="96" viewBox="0 0 194 96" fill="none" xmlns="http://www.w3.org/2000/svg">
<path d="M4.91221 30.7685C5.92782 18.7989 0 15.1614 0 15.1614C0 15.1614 1.38869 20.2394 0.37308 33.2661C-0.321263 42.1475 2.83955 49.0391 4.68422 53.2984C4.9433 53.8995 5.83455 53.4331 5.66874 52.801C4.01061 46.5104 4.07278 40.6655 4.91221 30.7685Z" fill="#FF4713"/>
<path d="M33.3388 87.3939C41.1216 80.3054 52.1689 59.1746 52.3762 43.1632C50.5834 43.6918 47.0287 45.609 45.7022 51.5368C44.9457 54.9256 42.8212 62.9572 34.9658 62.2732C24.0947 61.3094 25.6699 40.7382 42.7072 42.6036C50.7595 43.4845 52.0653 37.6914 52.0653 36.9142C50.3035 37.7225 47.6402 37.3909 45.1426 37.08C29.7945 35.2353 22.4158 44.0338 22.4158 54.0551C22.4158 60.0762 26.3332 65.1335 30.748 67.9523C33.0901 69.455 31.4009 70.9162 29.6598 69.6519C25.017 66.3045 19.597 61.869 19.597 52.4384C19.597 36.6758 35.6705 29.836 39.4428 27.0275C45.0493 22.8511 47.7438 19.4001 46.3758 13.2547C44.1685 17.3378 38.7174 20.9028 34.6549 23.0584C23.6698 28.8929 15.0683 37.3909 15.0683 49.8683C15.0683 59.6824 19.3794 65.0817 24.5611 69.2581C25.7425 70.2011 24.4989 71.5276 22.9858 70.3151C14.747 63.6722 12.0214 56.3143 12.0214 46.8629C12.0318 29.0173 34.5513 12.8609 24.4263 0C24.5611 13.1303 7.58594 24.6025 7.58594 46.3344C7.58594 56.0967 11.5033 65.776 22.4158 73.4345C28.8515 77.9529 29.7634 83.1138 28.8204 87.7877C28.4058 90.306 31.463 89.1038 33.3388 87.3939Z" fill="#FF4713"/>
<path d="M91.446 36.9143C90.0573 36.9143 88.8344 37.9403 88.6479 39.329C88.3992 41.1736 90.0677 42.7696 91.8812 42.469C93.5083 42.21 94.5861 40.5311 94.1404 38.9559C93.8192 37.733 92.6792 36.9143 91.446 36.9143Z" fill="#243746"/>
<path d="M183.939 52.314C183.939 46.8214 181.389 44.7488 175.835 44.7488C171.7 44.7488 167.824 46.2722 167.824 47.806C167.824 48.3345 168.321 49.7024 169.098 50.6144C171.057 49.4952 172.736 48.7179 174.974 48.7179C178.508 48.7179 178.57 50.345 178.57 52.3555C172.777 52.3555 166.59 53.568 166.59 59.3403C166.59 63.2059 168.891 65.548 172.922 65.548C175.721 65.548 177.265 64.5116 178.985 63.3924C179.721 65.7552 183.047 65.4132 184.788 64.6464C184.136 63.5893 183.949 62.4597 183.949 59.931V52.314H183.939ZM178.56 60.045C177.43 61.1125 176.228 61.7032 174.757 61.7032C171.264 61.7032 171.119 57.8169 173.192 56.4386C174.487 55.5577 176.881 55.2986 178.56 55.2986V60.045Z" fill="#243746"/>
<path d="M129.935 52.314C129.935 46.8214 127.386 44.7488 121.831 44.7488C117.686 44.7488 113.81 46.2722 113.81 47.806C113.81 48.3345 114.307 49.7024 115.085 50.6144C117.043 49.4952 118.722 48.7179 120.95 48.7179C124.495 48.7179 124.546 50.345 124.546 52.3555C118.753 52.3555 112.566 53.568 112.566 59.3403C112.566 63.2059 114.867 65.548 118.898 65.548C121.696 65.548 123.241 64.5116 124.961 63.3924C125.697 65.7552 129.023 65.4132 130.764 64.6464C130.112 63.5893 129.925 62.4597 129.925 59.931V52.314H129.935ZM124.557 60.045C123.427 61.1125 122.225 61.7032 120.753 61.7032C117.261 61.7032 117.116 57.8169 119.189 56.4386C120.484 55.5577 122.878 55.2986 124.557 55.2986V60.045Z" fill="#243746"/>
<path d="M73.9837 36.9143H66.5428V65.0611C66.8434 65.1544 68.3564 65.258 68.7088 65.2269C71.0198 65.1544 72.1598 64.2217 72.1598 62.1386V55.0087H74.2635C80.6784 55.0087 85.4248 52.1691 85.4248 45.3397C85.4145 38.8522 79.953 36.9143 73.9837 36.9143ZM72.1598 50.9981V41.07C76.1082 40.7073 79.6317 41.4224 79.6317 45.6195C79.6317 50.9048 75.9735 50.9981 72.1598 50.9981Z" fill="#243746"/>
<path d="M94.2544 62.128C94.2544 64.2214 93.1144 65.1541 90.8137 65.2163C90.451 65.2473 88.938 65.1437 88.6375 65.0504V48.2619C88.6375 46.1685 89.7774 45.2358 92.0884 45.1736C92.4408 45.1425 93.9538 45.2461 94.2647 45.3394V62.128H94.2544Z" fill="#243746"/>
<path d="M157.833 54.449C157.833 51.9203 157.782 51.226 157.574 50.6767C156.704 48.2828 151.646 49.0082 151.646 51.4643V62.1282C151.646 64.2216 150.506 65.1543 148.195 65.2165C147.843 65.2475 146.33 65.1543 146.019 65.0506V54.449C146.019 51.9203 145.967 51.226 145.76 50.6767C144.89 48.2828 139.832 49.0082 139.832 51.4643V62.1282C139.832 64.2216 138.692 65.1543 136.381 65.2165C136.029 65.2475 134.516 65.1543 134.215 65.0506V45.3396C136.516 45.008 139.065 45.0391 139.542 47.2983C141.781 44.1064 149.429 43.4017 150.89 48.1584C152.248 45.5676 155.243 44.5416 158.082 44.7903C162.922 45.2049 163.409 49.1533 163.43 53.993V62.1282C163.43 64.2216 162.29 65.1543 159.979 65.2165C159.626 65.2475 158.113 65.1543 157.802 65.0506V54.449H157.833Z" fill="#243746"/>
<path d="M98.5863 65.0608C98.8868 65.1541 100.4 65.2577 100.752 65.2266C103.063 65.1645 104.203 64.2318 104.203 62.1384V52.1585C104.203 49.9925 107.457 48.4588 110.276 50.8423C110.96 49.6816 111.634 47.8784 111.634 46.811C111.634 44.5207 106.784 43.5051 103.944 47.2877C103.426 45.1218 100.794 44.9871 98.5759 45.3498V65.0608H98.5863Z" fill="#243746"/>
<path d="M193.784 37.0696C193.525 36.9764 192.333 36.9038 191.887 36.9038C189.41 36.9038 188.167 37.8261 188.167 40.0024V65.0506C188.467 65.1439 189.98 65.2475 190.343 65.2164C192.644 65.1542 193.784 64.2215 193.784 62.1281V37.0696Z" fill="#243746"/>
<path d="M78.9063 87.3939C79.1136 87.7463 79.1861 87.9536 79.1861 88.2023C79.1861 88.8137 78.6576 89.3008 78.0151 89.3008C77.5591 89.3008 77.2793 89.0728 76.9684 88.565L73.8801 83.2072C73.4966 83.2279 73.0614 83.259 72.6261 83.259H68.9264V88.109C68.9264 88.7515 68.3875 89.3008 67.7243 89.3008C67.061 89.3008 66.5532 88.7412 66.5532 88.109V73.5071C66.5532 72.8646 67.061 72.3049 67.7243 72.3049H72.5743C74.8232 72.3049 76.4087 72.7609 77.6316 73.8076C78.7094 74.7507 79.2379 76.1601 79.2379 77.7664C79.2379 79.4245 78.6783 80.834 77.6005 81.777C77.1653 82.1605 76.6885 82.461 76.0978 82.6993L78.9063 87.3939ZM75.8388 80.4194C76.4813 79.8494 76.8336 79.0204 76.8336 77.7871C76.8336 76.5643 76.4709 75.7248 75.8388 75.1548C75.0822 74.4916 73.7972 74.2636 72.3152 74.2636H68.9161V81.3107H72.3152C73.849 81.321 75.0408 81.0827 75.8388 80.4194Z" fill="#243746"/>
<path d="M109.457 88.1816V72.1703C109.457 71.5588 109.965 71.051 110.577 71.051C111.188 71.051 111.696 71.5692 111.696 72.1703V88.1816C111.696 88.8034 111.188 89.3008 110.577 89.3008C109.965 89.3112 109.457 88.8034 109.457 88.1816Z" fill="#243746"/>
<path d="M126.671 94.1404C126.671 93.9332 126.723 93.757 126.847 93.4461L128.682 89.3111L123.78 78.44C123.645 78.1291 123.604 77.9529 123.604 77.7457C123.604 77.1031 124.091 76.699 124.681 76.699C125.168 76.699 125.5 76.9788 125.707 77.414L128.464 83.6217C129.055 84.9275 129.521 86.1296 129.77 86.9587H129.79C130.07 86.0985 130.474 84.9689 131.044 83.6217L133.656 77.4451C133.863 76.9891 134.143 76.7093 134.651 76.7093C135.242 76.7093 135.729 77.1135 135.729 77.7353C135.729 77.9322 135.677 78.1084 135.542 78.4193L128.744 94.4306C128.536 94.8866 128.257 95.1768 127.749 95.1768C127.158 95.156 126.671 94.7519 126.671 94.1404Z" fill="#243746"/>
<path d="M82.9999 87.7773C79.4868 84.2538 81.0724 76.5642 87.166 76.5642C90.5652 76.5642 92.9591 79.1965 92.9591 82.4713C92.9591 83.2589 92.6275 83.5905 91.9124 83.5905H83.5077C83.6736 85.4559 84.7824 87.3939 87.4665 87.3939C88.5443 87.3939 89.5081 87.1141 90.7828 86.4301C91.2181 86.2021 91.4461 86.0985 91.7362 86.0985C92.244 86.0985 92.5964 86.4301 92.5964 86.9483C92.5964 87.3524 92.4513 87.6633 91.7362 88.1711C90.7413 88.8862 89.0729 89.4458 87.5184 89.4458C85.425 89.4355 84.057 88.824 82.9999 87.7773ZM90.7413 81.8495C90.5859 79.9116 89.2594 78.5747 87.1867 78.5747C85.1451 78.5747 83.715 79.7768 83.487 81.8495H90.7413Z" fill="#243746"/>
<path d="M94.5757 83.0517C94.5757 78.9167 97.4152 76.5642 100.213 76.5642C101.83 76.5642 102.96 77.2171 104.141 77.8493V77.8285C104.141 77.2171 104.659 76.6989 105.26 76.6989C105.872 76.6989 106.38 77.2171 106.38 77.8285V88.1919C106.38 88.8033 105.872 89.3111 105.26 89.3111C104.649 89.3111 104.141 88.7929 104.141 88.1919V88.1089C102.856 88.8033 101.768 89.4355 100.11 89.4355C96.8142 89.4355 94.5757 86.8343 94.5757 83.0517ZM103.861 86.5026C104.089 86.3679 104.141 86.2746 104.141 85.9948V80.0152C104.141 79.7043 104.089 79.6007 103.84 79.4763C102.846 78.9685 101.675 78.6369 100.618 78.6369C98.2754 78.6369 96.8867 80.0463 96.8867 83.0309C96.8867 86.1192 98.2754 87.3732 100.493 87.3732C101.623 87.3732 103.001 86.9794 103.861 86.5026Z" fill="#243746"/>
<path d="M116.536 88.5442C115.82 87.8498 115.51 86.9586 115.51 85.4974V78.5332H113.955C113.468 78.5332 113.064 78.1498 113.064 77.6627C113.064 77.1653 113.468 76.7715 113.955 76.7715H115.51V73.963C115.51 73.3516 116.028 72.8438 116.629 72.8438C117.24 72.8438 117.758 73.3516 117.758 73.963V76.7715H121.406C121.893 76.7715 122.277 77.1756 122.277 77.6627C122.277 78.1394 121.893 78.5332 121.406 78.5332H117.758V85.4766C117.758 86.2124 117.862 86.6477 118.132 86.9897C119.054 88.0882 121.427 86.969 122.121 86.969C122.608 86.969 122.992 87.3006 122.992 87.8084C122.992 88.2436 122.743 88.5753 122.121 88.8447C120.536 89.5909 117.81 89.7671 116.536 88.5442Z" fill="#243746"/>
</svg>
