<svg width="187" height="92" viewBox="0 0 187 92" fill="none" xmlns="http://www.w3.org/2000/svg">
<path d="M4.74 29.69C5.72 18.14 0 14.63 0 14.63C0 14.63 1.34 19.53 0.36 32.1C-0.31 40.67 2.74 47.32 4.52 51.43C4.77 52.01 5.63 51.56 5.47 50.95C3.87 44.88 3.93 39.24 4.74 29.69Z" fill="#FF4713"/>
<path d="M32.1699 84.33C39.6799 77.49 50.3399 57.1 50.5399 41.65C48.8099 42.16 45.3799 44.01 44.0999 49.73C43.3699 53 41.3199 60.75 33.7399 60.09C23.2499 59.16 24.7699 39.31 41.2099 41.11C48.9799 41.96 50.2399 36.37 50.2399 35.62C48.5399 36.4 45.9699 36.08 43.5599 35.78C28.7499 34 21.6299 42.49 21.6299 52.16C21.6299 57.97 25.4099 62.85 29.6699 65.57C31.9299 67.02 30.2999 68.43 28.6199 67.21C24.1399 63.98 18.9099 59.7 18.9099 50.6C18.9099 35.39 34.4199 28.79 38.0599 26.08C43.4699 22.05 46.0699 18.72 44.7499 12.79C42.6199 16.73 37.3599 20.17 33.4399 22.25C22.8399 27.88 14.5399 36.08 14.5399 48.12C14.5399 57.59 18.6999 62.8 23.6999 66.83C24.8399 67.74 23.6399 69.02 22.1799 67.85C14.2299 61.44 11.5999 54.34 11.5999 45.22C11.6099 28 33.3399 12.41 23.5699 0C23.6999 12.67 7.31995 23.74 7.31995 44.71C7.31995 54.13 11.0999 63.47 21.6299 70.86C27.8399 75.22 28.7199 80.2 27.8099 84.71C27.4099 87.14 30.3599 85.98 32.1699 84.33Z" fill="#FF4713"/>
<path d="M88.24 35.62C86.9 35.62 85.72 36.61 85.54 37.95C85.3 39.73 86.91 41.27 88.66 40.98C90.23 40.73 91.27 39.11 90.84 37.59C90.53 36.41 89.43 35.62 88.24 35.62Z" fill="white"/>
<path d="M177.49 50.4801C177.49 45.1801 175.03 43.1801 169.67 43.1801C165.68 43.1801 161.94 44.6501 161.94 46.1301C161.94 46.6401 162.42 47.9601 163.17 48.8401C165.06 47.7601 166.68 47.0101 168.84 47.0101C172.25 47.0101 172.31 48.5801 172.31 50.5201C166.72 50.5201 160.75 51.6901 160.75 57.2601C160.75 60.9901 162.97 63.2501 166.86 63.2501C169.56 63.2501 171.05 62.2501 172.71 61.1701C173.42 63.4501 176.63 63.1201 178.31 62.3801C177.68 61.3601 177.5 60.2701 177.5 57.8301V50.4801H177.49ZM172.3 57.9401C171.21 58.9701 170.05 59.5401 168.63 59.5401C165.26 59.5401 165.12 55.7901 167.12 54.4601C168.37 53.6101 170.68 53.3601 172.3 53.3601V57.9401Z" fill="white"/>
<path d="M125.38 50.4801C125.38 45.1801 122.92 43.1801 117.56 43.1801C113.56 43.1801 109.82 44.6501 109.82 46.1301C109.82 46.6401 110.3 47.9601 111.05 48.8401C112.94 47.7601 114.56 47.0101 116.71 47.0101C120.13 47.0101 120.18 48.5801 120.18 50.5201C114.59 50.5201 108.62 51.6901 108.62 57.2601C108.62 60.9901 110.84 63.2501 114.73 63.2501C117.43 63.2501 118.92 62.2501 120.58 61.1701C121.29 63.4501 124.5 63.1201 126.18 62.3801C125.55 61.3601 125.37 60.2701 125.37 57.8301V50.4801H125.38ZM120.19 57.9401C119.1 58.9701 117.94 59.5401 116.52 59.5401C113.15 59.5401 113.01 55.7901 115.01 54.4601C116.26 53.6101 118.57 53.3601 120.19 53.3601V57.9401Z" fill="white"/>
<path d="M71.39 35.62H64.21V62.78C64.5 62.87 65.96 62.97 66.3 62.94C68.53 62.87 69.63 61.97 69.63 59.96V53.08H71.66C77.85 53.08 82.43 50.34 82.43 43.75C82.42 37.49 77.15 35.62 71.39 35.62ZM69.63 49.21V39.63C73.44 39.28 76.84 39.97 76.84 44.02C76.84 49.12 73.31 49.21 69.63 49.21Z" fill="white"/>
<path d="M90.95 59.95C90.95 61.97 89.85 62.87 87.63 62.93C87.28 62.96 85.82 62.86 85.53 62.77V46.57C85.53 44.55 86.63 43.65 88.86 43.59C89.2 43.56 90.66 43.66 90.96 43.75V59.95H90.95Z" fill="white"/>
<path d="M152.3 52.54C152.3 50.1 152.25 49.43 152.05 48.9C151.21 46.59 146.33 47.29 146.33 49.66V59.95C146.33 61.97 145.23 62.87 143 62.93C142.66 62.96 141.2 62.87 140.9 62.77V52.54C140.9 50.1 140.85 49.43 140.65 48.9C139.81 46.59 134.93 47.29 134.93 49.66V59.95C134.93 61.97 133.83 62.87 131.6 62.93C131.26 62.96 129.8 62.87 129.51 62.77V43.75C131.73 43.43 134.19 43.46 134.65 45.64C136.81 42.56 144.19 41.88 145.6 46.47C146.91 43.97 149.8 42.98 152.54 43.22C157.21 43.62 157.68 47.43 157.7 52.1V59.95C157.7 61.97 156.6 62.87 154.37 62.93C154.03 62.96 152.57 62.87 152.27 62.77V52.54H152.3Z" fill="white"/>
<path d="M95.13 62.78C95.42 62.87 96.88 62.97 97.22 62.94C99.45 62.88 100.55 61.98 100.55 59.96V50.33C100.55 48.24 103.69 46.76 106.41 49.06C107.07 47.94 107.72 46.2 107.72 45.17C107.72 42.96 103.04 41.98 100.3 45.63C99.8 43.54 97.26 43.41 95.12 43.76V62.78H95.13Z" fill="white"/>
<path d="M186.99 35.77C186.74 35.68 185.59 35.61 185.16 35.61C182.77 35.61 181.57 36.5 181.57 38.6V62.77C181.86 62.86 183.32 62.96 183.67 62.93C185.89 62.87 186.99 61.97 186.99 59.95V35.77Z" fill="white"/>
<path d="M76.14 84.33C76.34 84.67 76.41 84.87 76.41 85.11C76.41 85.7 75.9 86.17 75.28 86.17C74.84 86.17 74.57 85.95 74.27 85.46L71.29 80.29C70.92 80.31 70.5 80.34 70.08 80.34H66.51V85.02C66.51 85.64 65.99 86.17 65.35 86.17C64.71 86.17 64.22 85.63 64.22 85.02V70.93C64.22 70.31 64.71 69.77 65.35 69.77H70.03C72.2 69.77 73.73 70.21 74.91 71.22C75.95 72.13 76.46 73.49 76.46 75.04C76.46 76.64 75.92 78 74.88 78.91C74.46 79.28 74 79.57 73.43 79.8L76.14 84.33ZM73.18 77.6C73.8 77.05 74.14 76.25 74.14 75.06C74.14 73.88 73.79 73.07 73.18 72.52C72.45 71.88 71.21 71.66 69.78 71.66H66.5V78.46H69.78C71.26 78.47 72.41 78.24 73.18 77.6Z" fill="white"/>
<path d="M105.62 85.0901V69.6401C105.62 69.0501 106.11 68.5601 106.7 68.5601C107.29 68.5601 107.78 69.0601 107.78 69.6401V85.0901C107.78 85.6901 107.29 86.1701 106.7 86.1701C106.11 86.1801 105.62 85.6901 105.62 85.0901Z" fill="white"/>
<path d="M122.23 90.84C122.23 90.64 122.28 90.47 122.4 90.17L124.17 86.18L119.44 75.69C119.31 75.39 119.27 75.22 119.27 75.02C119.27 74.4 119.74 74.01 120.31 74.01C120.78 74.01 121.1 74.28 121.3 74.7L123.96 80.69C124.53 81.95 124.98 83.11 125.22 83.91H125.24C125.51 83.08 125.9 81.99 126.45 80.69L128.97 74.73C129.17 74.29 129.44 74.02 129.93 74.02C130.5 74.02 130.97 74.41 130.97 75.01C130.97 75.2 130.92 75.37 130.79 75.67L124.23 91.12C124.03 91.56 123.76 91.84 123.27 91.84C122.7 91.82 122.23 91.43 122.23 90.84Z" fill="white"/>
<path d="M80.09 84.7C76.7 81.3 78.23 73.88 84.11 73.88C87.39 73.88 89.7 76.42 89.7 79.58C89.7 80.34 89.38 80.66 88.69 80.66H80.58C80.74 82.46 81.81 84.33 84.4 84.33C85.44 84.33 86.37 84.06 87.6 83.4C88.02 83.18 88.24 83.08 88.52 83.08C89.01 83.08 89.35 83.4 89.35 83.9C89.35 84.29 89.21 84.59 88.52 85.08C87.56 85.77 85.95 86.31 84.45 86.31C82.43 86.3 81.11 85.71 80.09 84.7ZM87.56 78.98C87.41 77.11 86.13 75.82 84.13 75.82C82.16 75.82 80.78 76.98 80.56 78.98H87.56Z" fill="white"/>
<path d="M91.26 80.14C91.26 76.15 94 73.88 96.7 73.88C98.26 73.88 99.35 74.51 100.49 75.12V75.1C100.49 74.51 100.99 74.01 101.57 74.01C102.16 74.01 102.65 74.51 102.65 75.1V85.1C102.65 85.69 102.16 86.18 101.57 86.18C100.98 86.18 100.49 85.68 100.49 85.1V85.02C99.25 85.69 98.2 86.3 96.6 86.3C93.42 86.3 91.26 83.79 91.26 80.14ZM100.22 83.47C100.44 83.34 100.49 83.25 100.49 82.98V77.21C100.49 76.91 100.44 76.81 100.2 76.69C99.24 76.2 98.11 75.88 97.09 75.88C94.83 75.88 93.49 77.24 93.49 80.12C93.49 83.1 94.83 84.31 96.97 84.31C98.06 84.31 99.39 83.93 100.22 83.47Z" fill="white"/>
<path d="M112.45 85.44C111.76 84.77 111.46 83.91 111.46 82.5V75.78H109.96C109.49 75.78 109.1 75.41 109.1 74.94C109.1 74.46 109.49 74.08 109.96 74.08H111.46V71.37C111.46 70.78 111.96 70.29 112.54 70.29C113.13 70.29 113.63 70.78 113.63 71.37V74.08H117.15C117.62 74.08 117.99 74.47 117.99 74.94C117.99 75.4 117.62 75.78 117.15 75.78H113.63V82.48C113.63 83.19 113.73 83.61 113.99 83.94C114.88 85 117.17 83.92 117.84 83.92C118.31 83.92 118.68 84.24 118.68 84.73C118.68 85.15 118.44 85.47 117.84 85.73C116.31 86.45 113.68 86.62 112.45 85.44Z" fill="white"/>
</svg>
