<svg width="31" height="31" viewBox="0 0 31 31" fill="none" xmlns="http://www.w3.org/2000/svg">
<path d="M0.333313 15.6667C0.333313 18.6335 1.21305 21.5336 2.86127 24.0003C4.50949 26.467 6.85217 28.3896 9.59306 29.5249C12.3339 30.6602 15.3499 30.9573 18.2597 30.3785C21.1694 29.7997 23.8421 28.3711 25.9399 26.2733C28.0377 24.1756 29.4663 21.5028 30.0451 18.5931C30.6239 15.6834 30.3268 12.6674 29.1915 9.92649C28.0562 7.1856 26.1336 4.84292 23.6669 3.1947C21.2001 1.54648 18.3 0.666748 15.3333 0.666748C11.3551 0.666748 7.53976 2.2471 4.72671 5.06015C1.91367 7.87319 0.333313 11.6885 0.333313 15.6667Z" fill="#CECAE6"/>
<path d="M16.238 18.8729C16.7068 18.8307 17.6208 17.9729 18.113 17.9354C18.579 17.8935 19.0438 18.0272 19.4162 18.3104L20.6724 19.2479L21.4271 19.8479C21.5548 19.9438 21.6618 20.0646 21.7415 20.203C21.8212 20.3415 21.872 20.4946 21.8909 20.6532C21.9097 20.8118 21.8962 20.9726 21.8511 21.1259C21.8061 21.2791 21.7304 21.4216 21.6287 21.5448L20.1708 23.4198C20.1163 23.4905 20.0446 23.5461 19.9626 23.5813C19.8806 23.6166 19.7909 23.6304 19.7021 23.6213C13.374 23.0542 8.3396 17.8745 8.3396 11.5838C8.3396 10.4734 8.49743 9.36861 8.80835 8.30259C8.82492 8.24965 8.85541 8.20213 8.89665 8.16502C8.93788 8.12791 8.98833 8.10257 9.04272 8.09165L11.813 7.70259C12.1312 7.63419 12.4635 7.69436 12.7375 7.86999C13.0114 8.04561 13.2049 8.32243 13.2755 8.64009L13.4583 9.5729L13.763 11.101C13.8536 11.5512 13.7644 12.0189 13.5146 12.4042C13.2615 12.7979 12.0662 13.1917 11.8083 13.5901C12.5166 15.8925 14.1098 17.8195 16.238 18.9479V18.8729Z" stroke="#1F2F42" stroke-linecap="round" stroke-linejoin="round"/>
</svg>
