<svg width="46" height="48" viewBox="0 0 46 48" fill="none" xmlns="http://www.w3.org/2000/svg">
<path d="M46 34.5171C45.999 37.6636 44.9238 40.7155 42.9526 43.1674C40.9813 45.6193 38.2321 47.3242 35.1601 48L33.6927 43.5962C35.0364 43.3748 36.3144 42.858 37.4343 42.0829C38.5543 41.3079 39.4885 40.2939 40.1695 39.1142H34.5C33.28 39.1142 32.11 38.6294 31.2473 37.7664C30.3846 36.9034 29.9 35.733 29.9 34.5125V25.3092C29.9 24.0887 30.3846 22.9183 31.2473 22.0553C32.11 21.1923 33.28 20.7075 34.5 20.7075H41.2574C40.6961 16.2598 38.5317 12.1697 35.1703 9.20489C31.8088 6.24004 27.4814 4.60414 23 4.60414C18.5186 4.60414 14.1912 6.24004 10.8297 9.20489C7.46828 12.1697 5.30387 16.2598 4.7426 20.7075H11.5C12.72 20.7075 13.89 21.1923 14.7527 22.0553C15.6154 22.9183 16.1 24.0887 16.1 25.3092V34.5125C16.1 35.733 15.6154 36.9034 14.7527 37.7664C13.89 38.6294 12.72 39.1142 11.5 39.1142H4.6C3.38 39.1142 2.20998 38.6294 1.34731 37.7664C0.484641 36.9034 0 35.733 0 34.5125V23.0083C0 10.3008 10.2971 0 23 0C35.7029 0 46 10.3008 46 23.0083V34.5171Z" fill="black"/>
</svg>
