<svg width="43" height="43" viewBox="0 0 43 43" fill="none" xmlns="http://www.w3.org/2000/svg">
<path d="M20.9558 0.00209018C9.34377 0.296357 0 9.81905 0 21.501C0 33.3685 9.632 43 21.5 43C33.368 43 43 33.3685 43 21.501C43 9.63362 33.368 0.00209018 21.5 0.00209018C21.3146 0.00209018 21.1385 -0.00261272 20.9538 0.00209018M20.9329 3.69722C21.1238 3.69118 21.3078 3.69722 21.5 3.69722C31.3282 3.69722 39.3047 11.6733 39.3047 21.501C39.3047 31.3288 31.3282 39.3049 21.5 39.3049C11.6718 39.3049 3.69531 31.3288 3.69531 21.501C3.69531 11.8655 11.3701 3.99955 20.9329 3.69722Z" fill="black"/>
<path d="M24.4999 13.1879H28.3958L29.8878 10.9454H15.2616L13.7695 13.1879H16.3084C18.8802 13.1879 21.2538 13.3866 22.203 15.5372H15.2616L13.7695 17.7798H22.483C22.4828 17.7848 22.4828 17.7895 22.4828 17.7945C22.4828 19.4061 21.1434 21.8781 16.7208 21.8781L14.5809 21.8756L14.5833 23.9709L23.1534 34.6817H26.9699L18.0996 23.6008C21.751 23.4039 25.1756 21.3636 25.6692 17.7798H28.3958L29.8878 15.5372H25.6303C25.4584 14.6731 25.0851 13.8373 24.4999 13.1879Z" fill="#010101"/>
</svg>
