<svg width="43" height="39" viewBox="0 0 43 39" fill="none" xmlns="http://www.w3.org/2000/svg">
<path d="M40.3598 13.3358L37.4186 4.44384C36.9919 3.14921 36.1713 2.02302 35.0732 1.22527C33.9751 0.427518 32.6555 -0.00120945 31.3019 2.56268e-06H11.6982C10.3445 -0.00120945 9.02487 0.427518 7.9268 1.22527C6.82873 2.02302 6.00806 3.14921 5.5814 4.44384L2.6402 13.3358C1.85808 13.6656 1.19016 14.2211 0.720394 14.9323C0.250632 15.6436 -1.03394e-06 16.4789 0 17.3333V28.1667C0 29.7657 0.8686 31.148 2.15 31.8998V36.8333C2.15 37.408 2.37652 37.9591 2.77972 38.3654C3.18292 38.7717 3.72978 39 4.3 39H6.45C7.02022 39 7.56708 38.7717 7.97028 38.3654C8.37348 37.9591 8.6 37.408 8.6 36.8333V32.5H34.4V36.8333C34.4 37.408 34.6265 37.9591 35.0297 38.3654C35.4329 38.7717 35.9798 39 36.55 39H38.7C39.2702 39 39.8171 38.7717 40.2203 38.3654C40.6235 37.9591 40.85 37.408 40.85 36.8333V31.8998C41.5023 31.5229 42.0445 30.9793 42.4219 30.3239C42.7994 29.6685 42.9988 28.9244 43 28.1667V17.3333C43 16.4789 42.7494 15.6436 42.2796 14.9323C41.8098 14.2211 41.1419 13.6656 40.3598 13.3358ZM11.6982 4.33334H31.2997C32.2264 4.33334 33.0477 4.927 33.34 5.81534L35.718 13H7.28205L9.6578 5.81534C9.80045 5.38372 10.0743 5.00831 10.4405 4.74231C10.8067 4.47631 11.2467 4.33323 11.6982 4.33334ZM7.525 26C7.10135 25.9999 6.68187 25.9156 6.29052 25.7521C5.89917 25.5886 5.5436 25.349 5.24414 25.047C4.94467 24.745 4.70715 24.3865 4.54516 23.9921C4.38316 23.5976 4.29986 23.1748 4.3 22.7478C4.30014 22.3209 4.38373 21.8982 4.54598 21.5038C4.70824 21.1094 4.94599 20.7511 5.24566 20.4493C5.54532 20.1475 5.90104 19.9081 6.2925 19.7449C6.68396 19.5816 7.1035 19.4977 7.52715 19.4978C8.38276 19.4981 9.20321 19.8409 9.80801 20.4508C10.4128 21.0607 10.7524 21.8878 10.7522 22.75C10.7519 23.6122 10.4117 24.4391 9.80649 25.0485C9.20129 25.658 8.38061 26.0003 7.525 26ZM35.475 26C35.0513 25.9999 34.6319 25.9156 34.2405 25.7521C33.8492 25.5886 33.4936 25.349 33.1941 25.047C32.8947 24.745 32.6572 24.3865 32.4952 23.9921C32.3332 23.5976 32.2499 23.1748 32.25 22.7478C32.2501 22.3209 32.3337 21.8982 32.496 21.5038C32.6582 21.1094 32.896 20.7511 33.1957 20.4493C33.4953 20.1475 33.851 19.9081 34.2425 19.7449C34.634 19.5816 35.0535 19.4977 35.4771 19.4978C36.3328 19.4981 37.1532 19.8409 37.758 20.4508C38.3628 21.0607 38.7024 21.8878 38.7022 22.75C38.7019 23.6122 38.3617 24.4391 37.7565 25.0485C37.1513 25.658 36.3306 26.0003 35.475 26Z" fill="black"/>
</svg>
