<svg width="20" height="20" viewBox="0 0 20 20" fill="none" xmlns="http://www.w3.org/2000/svg">
<path d="M18.7603 9.99999L19.8656 8.08969C19.9985 7.85986 20.0346 7.58667 19.9661 7.33021C19.8975 7.07374 19.73 6.85499 19.5002 6.72205L17.588 5.61672V3.41407C17.588 3.14854 17.4825 2.89388 17.2947 2.70612C17.107 2.51835 16.8523 2.41287 16.5868 2.41287H14.3852L13.2809 0.501575C13.1476 0.272216 12.9292 0.104604 12.6732 0.0350146C12.5462 0.000589099 12.4137 -0.00828766 12.2832 0.00889877C12.1528 0.0260852 12.0271 0.0689931 11.9133 0.135135L10.0011 1.24046L8.08885 0.134134C7.8589 0.00137182 7.58564 -0.034606 7.32916 0.0341144C7.07269 0.102835 6.85402 0.270625 6.72125 0.500574L5.61596 2.41287H3.41438C3.14886 2.41287 2.8942 2.51835 2.70645 2.70612C2.51869 2.89388 2.41321 3.14854 2.41321 3.41407V5.61572L0.500976 6.72105C0.386875 6.78668 0.286867 6.87421 0.206697 6.97862C0.126527 7.08302 0.067776 7.20224 0.0338191 7.32942C-0.000137751 7.4566 -0.00863111 7.58923 0.00882698 7.71971C0.0262851 7.85018 0.0693504 7.97591 0.135549 8.08969L1.24084 9.99999L0.135549 11.9103C0.00338321 12.1403 -0.0324755 12.4133 0.0357908 12.6697C0.104057 12.9261 0.270912 13.1451 0.499975 13.2789L2.41221 14.3843V16.5859C2.41221 16.8514 2.51769 17.1061 2.70545 17.2939C2.8932 17.4816 3.14786 17.5871 3.41338 17.5871H5.61596L6.72125 19.4994C6.80989 19.6509 6.93644 19.7768 7.08846 19.8645C7.24048 19.9523 7.41273 19.999 7.58826 20C7.76247 20 7.93567 19.9539 8.08985 19.8648L10.0001 18.7595L11.9123 19.8648C12.1422 19.9974 12.4153 20.0334 12.6717 19.9649C12.9281 19.8964 13.1468 19.729 13.2799 19.4994L14.3842 17.5871H16.5858C16.8513 17.5871 17.106 17.4816 17.2937 17.2939C17.4815 17.1061 17.587 16.8514 17.587 16.5859V14.3843L19.4992 13.2789C19.6131 13.2131 19.7129 13.1255 19.7929 13.021C19.873 12.9166 19.9316 12.7974 19.9655 12.6703C19.9995 12.5432 20.008 12.4107 19.9907 12.2803C19.9734 12.1498 19.9306 12.0241 19.8646 11.9103L18.7603 9.99999ZM7.49716 4.98396C7.89558 4.98409 8.27763 5.1425 8.55927 5.42433C8.8409 5.70616 8.99905 6.08833 8.99891 6.48677C8.99878 6.8852 8.84038 7.26727 8.55856 7.54891C8.27674 7.83055 7.89458 7.9887 7.49616 7.98857C7.09773 7.98844 6.71568 7.83003 6.43405 7.5482C6.15241 7.26637 5.99427 6.8842 5.9944 6.48576C5.99453 6.08733 6.15293 5.70526 6.43475 5.42362C6.71658 5.14198 7.09873 4.98383 7.49716 4.98396ZM7.79751 14.5955L6.19564 13.3951L12.2027 5.38544L13.8045 6.58589L7.79751 14.5955ZM12.503 14.996C12.3057 14.9959 12.1104 14.957 11.9282 14.8814C11.7459 14.8059 11.5804 14.6952 11.4409 14.5556C11.3015 14.4161 11.1909 14.2504 11.1154 14.0681C11.04 13.8858 11.0012 13.6905 11.0013 13.4932C11.0013 13.2959 11.0402 13.1006 11.1158 12.9183C11.1914 12.7361 11.3021 12.5705 11.4416 12.431C11.5812 12.2916 11.7468 12.181 11.9291 12.1055C12.1114 12.0301 12.3067 11.9913 12.504 11.9914C12.9024 11.9915 13.2845 12.1499 13.5661 12.4317C13.8478 12.7136 14.0059 13.0957 14.0058 13.4942C14.0056 13.8926 13.8472 14.2747 13.5654 14.5563C13.2836 14.838 12.9014 14.9961 12.503 14.996Z" fill="white"/>
</svg>
