<svg width="146" height="146" viewBox="0 0 146 146" fill="none" xmlns="http://www.w3.org/2000/svg">
<path d="M146 73C146 113.317 113.317 146 73 146C32.6832 146 0 113.317 0 73C0 32.6832 32.6832 0 73 0C113.317 0 146 32.6832 146 73ZM14.6835 73C14.6835 105.207 40.7927 131.317 73 131.317C105.207 131.317 131.317 105.207 131.317 73C131.317 40.7927 105.207 14.6835 73 14.6835C40.7927 14.6835 14.6835 40.7927 14.6835 73Z" fill="url(#paint0_linear_21_5)"/>
<path d="M69.3751 51.625V64.6562C67.593 65.2863 66.0428 66.4401 64.9279 67.9665C63.8129 69.4928 63.1852 71.3205 63.1271 73.2098C63.069 75.0992 63.5832 76.962 64.6022 78.554C65.6212 80.146 67.0976 81.3929 68.8376 82.1313L69.3751 82.3406V95.375H47.5001C45.9233 95.3755 44.4046 94.78 43.2484 93.7078C42.0922 92.6357 41.384 91.1661 41.2657 89.5938L41.2501 89.125V86H50.6251C52.2019 86.0005 53.7206 85.405 54.8768 84.3328C56.033 83.2607 56.7412 81.7911 56.8595 80.2187L56.8751 79.75V67.25C56.8756 65.6732 56.2801 64.1545 55.2079 62.9983C54.1358 61.8421 52.6662 61.1339 51.0939 61.0156L50.6251 61H41.2501V57.875C41.2496 56.2982 41.8451 54.7795 42.9173 53.6233C43.9895 52.4671 45.459 51.7589 47.0314 51.6406L47.5001 51.625H69.3751ZM97.5001 51.625C99.1577 51.625 100.747 52.2835 101.92 53.4556C103.092 54.6277 103.75 56.2174 103.75 57.875V61H94.3751C92.7175 61 91.1278 61.6585 89.9557 62.8306C88.7836 64.0027 88.1251 65.5924 88.1251 67.25V79.75C88.1251 81.4076 88.7836 82.9973 89.9557 84.1694C91.1278 85.3415 92.7175 86 94.3751 86H103.75V89.125C103.75 90.7826 103.092 92.3723 101.92 93.5444C100.747 94.7165 99.1577 95.375 97.5001 95.375H75.6251V82.3438C77.4549 81.6981 79.0394 80.5008 80.1602 78.9169C81.2809 77.3329 81.8828 75.4404 81.8828 73.5C81.8828 71.5596 81.2809 69.6671 80.1602 68.0831C79.0394 66.4992 77.4549 65.3019 75.6251 64.6562V51.625H97.5001ZM50.6251 67.25V79.75H41.2501V67.25H50.6251ZM103.75 67.25V79.75H94.3751V67.25H103.75ZM72.5001 70.375C73.3289 70.375 74.1238 70.7042 74.7098 71.2903C75.2959 71.8763 75.6251 72.6712 75.6251 73.5C75.6251 74.3288 75.2959 75.1237 74.7098 75.7097C74.1238 76.2958 73.3289 76.625 72.5001 76.625C71.6713 76.625 70.8765 76.2958 70.2904 75.7097C69.7044 75.1237 69.3751 74.3288 69.3751 73.5C69.3751 72.6712 69.7044 71.8763 70.2904 71.2903C70.8765 70.7042 71.6713 70.375 72.5001 70.375Z" fill="#FF4713"/>
<defs>
<linearGradient id="paint0_linear_21_5" x1="146" y1="73" x2="-34" y2="73" gradientUnits="userSpaceOnUse">
<stop stop-color="#FF4713"/>
<stop offset="1" stop-color="#FF4713" stop-opacity="0"/>
</linearGradient>
</defs>
</svg>
