<svg width="33" height="25" viewBox="0 0 33 25" fill="none" xmlns="http://www.w3.org/2000/svg">
<path d="M32.2536 3.8375C32.0021 3.66071 31.7161 3.57143 31.4286 3.57143C31.1881 3.57143 30.9477 3.63393 30.7261 3.75893L26.7143 6.03929V5.35714C26.7143 2.40357 24.5991 0 22 0H4.71429C2.11514 0 0 2.40357 0 5.35714V19.6429C0 22.5964 2.11514 25 4.71429 25H22C24.5991 25 26.7143 22.5964 26.7143 19.6429V18.9607L30.7261 21.2393C30.9477 21.3661 31.1881 21.4286 31.4286 21.4286C31.7161 21.4286 32.0021 21.3393 32.2536 21.1625C32.7171 20.8357 33 20.2625 33 19.6429V5.35714C33 4.7375 32.7171 4.16429 32.2536 3.8375ZM7.85714 15.1786C6.55443 15.1786 5.5 13.9804 5.5 12.5C5.5 11.0196 6.55443 9.82143 7.85714 9.82143C9.15986 9.82143 10.2143 11.0196 10.2143 12.5C10.2143 13.9804 9.15986 15.1786 7.85714 15.1786Z" fill="#CECAE6"/>
</svg>
