<svg width="146" height="146" viewBox="0 0 146 146" fill="none" xmlns="http://www.w3.org/2000/svg">
<path d="M146 73C146 113.317 113.317 146 73 146C32.6832 146 0 113.317 0 73C0 32.6832 32.6832 0 73 0C113.317 0 146 32.6832 146 73ZM14.6835 73C14.6835 105.207 40.7927 131.317 73 131.317C105.207 131.317 131.317 105.207 131.317 73C131.317 40.7927 105.207 14.6835 73 14.6835C40.7927 14.6835 14.6835 40.7927 14.6835 73Z" fill="url(#paint0_linear_21_3)"/>
<path d="M105.374 93.6876L105.39 93.6785L100.291 84.8465H102.298V84.8375C102.716 84.8375 103.056 84.4987 103.056 84.0801C103.056 83.9506 103.015 83.8344 102.958 83.728L102.971 83.7202L98.2552 75.552H99.4025V75.5457C99.5459 75.5457 99.6834 75.4887 99.7849 75.3874C99.8863 75.2861 99.9434 75.1486 99.9436 75.0053C99.9416 74.917 99.9175 74.8306 99.8736 74.754L99.8827 74.7484L93.0213 62.8631L93.0143 62.8673C92.9396 62.7101 92.822 62.5773 92.6752 62.4839C92.5283 62.3905 92.3581 62.3405 92.1841 62.3395C91.8173 62.3395 91.5065 62.5572 91.3546 62.8659L91.3511 62.8638L84.4897 74.7484L84.4911 74.7491C84.445 74.8267 84.4197 74.915 84.4176 75.0053C84.4176 75.3035 84.6598 75.5457 84.9587 75.5457V75.552H86.1214L81.4055 83.7202L81.4076 83.721C81.3433 83.8299 81.3078 83.9535 81.3047 84.0801C81.3047 84.4987 81.6442 84.8375 82.0628 84.8375V84.8465H84.0886L82.6186 87.3932L76.7393 77.2096H79.5715V77.197C80.1623 77.197 80.6411 76.7175 80.6411 76.1274C80.6411 75.9454 80.5914 75.776 80.5109 75.6255L80.5214 75.6192L73.8665 64.0923H75.4856V64.0839C75.586 64.0839 75.6854 64.0642 75.7781 64.0258C75.8709 63.9874 75.9551 63.9311 76.0261 63.8601C76.097 63.7891 76.1533 63.7048 76.1916 63.612C76.2299 63.5193 76.2495 63.4198 76.2493 63.3195C76.2493 63.1893 76.208 63.0724 76.1506 62.9653L76.1639 62.9576L66.4801 46.1877L66.4766 46.1898C66.3697 45.9679 66.2025 45.7807 65.9942 45.6495C65.7858 45.5182 65.5447 45.4483 65.2985 45.4478C64.7679 45.4478 64.3129 45.7642 64.1057 46.2178L54.4408 62.9576L54.4429 62.959C54.378 63.0685 54.3423 63.1929 54.3393 63.3202C54.3391 63.4205 54.3587 63.5198 54.397 63.6126C54.4353 63.7053 54.4914 63.7896 54.5623 63.8606C54.6332 63.9316 54.7173 63.9879 54.81 64.0263C54.9027 64.0648 55.002 64.0846 55.1023 64.0846V64.093H56.7438L50.1673 75.4834C50.0248 75.6679 49.9471 75.8942 49.9461 76.1274C49.9461 76.7182 50.4256 77.197 51.0157 77.197V77.2096H53.8745L46.7765 89.5051C46.6085 89.7249 46.5056 89.9965 46.5056 90.2947C46.5056 91.0171 47.0922 91.6036 47.8153 91.6036V91.6184H61.6606V97.5194C61.6606 98.0899 62.1233 98.5533 62.6938 98.5533H67.8619C68.4324 98.5533 68.8958 98.0906 68.8958 97.5194V91.6184H80.1798L78.9905 93.6785L78.9926 93.6799C78.9198 93.8122 78.8666 93.9571 78.8666 94.1195C78.8666 94.6319 79.2817 95.047 79.7941 95.047V95.0575H89.6053V97.8162C89.6053 98.2207 89.9336 98.5484 90.3375 98.5484H93.9999C94.4045 98.5484 94.7321 98.2207 94.7321 97.8162V95.0575H104.567V95.047C105.08 95.047 105.495 94.6319 105.495 94.1195C105.492 93.9676 105.45 93.8191 105.374 93.6876Z" fill="#FF4713"/>
<defs>
<linearGradient id="paint0_linear_21_3" x1="146" y1="73" x2="-34" y2="73" gradientUnits="userSpaceOnUse">
<stop stop-color="#FF4713"/>
<stop offset="1" stop-color="#FF4713" stop-opacity="0"/>
</linearGradient>
</defs>
</svg>
