<svg width="146" height="146" viewBox="0 0 146 146" fill="none" xmlns="http://www.w3.org/2000/svg">
<path d="M146 73C146 113.317 113.317 146 73 146C32.6832 146 0 113.317 0 73C0 32.6832 32.6832 0 73 0C113.317 0 146 32.6832 146 73ZM14.6835 73C14.6835 105.207 40.7927 131.317 73 131.317C105.207 131.317 131.317 105.207 131.317 73C131.317 40.7927 105.207 14.6835 73 14.6835C40.7927 14.6835 14.6835 40.7927 14.6835 73Z" fill="url(#paint0_linear_21_6)"/>
<path d="M73 37.6665C77.3475 37.6665 80.8333 41.1523 80.8333 45.4998C80.8333 49.8473 77.3475 53.3332 73 53.3332C68.6525 53.3332 65.1667 49.8473 65.1667 45.4998C65.1667 41.1523 68.6917 37.6665 73 37.6665ZM108.25 84.6665V76.8332C99.4767 76.8332 91.9567 73.0732 86.3167 66.3365L81.0683 60.0698C80.3396 59.1865 79.4244 58.4755 78.3883 57.988C77.3522 57.5004 76.2209 57.2483 75.0758 57.2498H71.0417C68.6525 57.2498 66.4592 58.2682 64.9708 60.0698L59.7225 66.3365C54.0433 73.0732 46.5233 76.8332 37.75 76.8332V84.6665C48.5992 84.6665 58.0775 80.084 65.1667 71.9373V80.7498L49.97 86.8207C47.3458 87.8782 45.5833 90.5415 45.5833 93.3223C45.5833 97.1998 48.7167 100.333 52.5942 100.333H61.25V98.3748C61.25 95.7779 62.2816 93.2874 64.1179 91.4511C65.9542 89.6148 68.4448 88.5832 71.0417 88.5832H82.7917C83.8883 88.5832 84.75 89.4448 84.75 90.5415C84.75 91.6382 83.8883 92.4998 82.7917 92.4998H71.0417C67.7908 92.4998 65.1667 95.124 65.1667 98.3748V100.333H93.4058C97.2833 100.333 100.417 97.1998 100.417 93.3223C100.417 90.5415 98.6542 87.8782 96.03 86.8207L80.8333 80.7498V71.9373C87.9225 80.084 97.4008 84.6665 108.25 84.6665Z" fill="#FF4713"/>
<defs>
<linearGradient id="paint0_linear_21_6" x1="146" y1="73" x2="-34" y2="73" gradientUnits="userSpaceOnUse">
<stop stop-color="#FF4713"/>
<stop offset="1" stop-color="#FF4713" stop-opacity="0"/>
</linearGradient>
</defs>
</svg>
