<svg width="146" height="146" viewBox="0 0 146 146" fill="none" xmlns="http://www.w3.org/2000/svg">
<path d="M146 73C146 113.317 113.317 146 73 146C32.6832 146 0 113.317 0 73C0 32.6832 32.6832 0 73 0C113.317 0 146 32.6832 146 73ZM14.6835 73C14.6835 105.207 40.7927 131.317 73 131.317C105.207 131.317 131.317 105.207 131.317 73C131.317 40.7927 105.207 14.6835 73 14.6835C40.7927 14.6835 14.6835 40.7927 14.6835 73Z" fill="url(#paint0_linear_21_2)"/>
<path fill-rule="evenodd" clip-rule="evenodd" d="M64.2708 49.4583C62.9613 49.4583 61.7055 49.9785 60.7795 50.9045C59.8535 51.8305 59.3333 53.0863 59.3333 54.3958V65.9167H82.375V54.3958C82.375 51.3403 83.5888 48.4099 85.7494 46.2494C87.9099 44.0888 90.8403 42.875 93.8958 42.875C96.9514 42.875 99.8817 44.0888 102.042 46.2494C104.203 48.4099 105.417 51.3403 105.417 54.3958C105.416 55.2348 105.094 56.0418 104.519 56.6518C103.943 57.2619 103.155 57.629 102.318 57.6782C101.48 57.7274 100.656 57.4549 100.012 56.9164C99.3689 56.3779 98.9555 55.6141 98.8564 54.781L98.8333 54.3958C98.8333 53.0863 98.3131 51.8305 97.3872 50.9045C96.4612 49.9785 95.2053 49.4583 93.8958 49.4583C92.5863 49.4583 91.3305 49.9785 90.4045 50.9045C89.4785 51.8305 88.9583 53.0863 88.9583 54.3958V82.375C88.9583 82.849 88.8596 83.2967 88.6785 83.7015C89.2475 84.0111 89.8952 84.146 90.5404 84.0892C91.1857 84.0324 91.7998 83.7865 92.306 83.3822L96.776 79.8042C97.1136 79.534 97.5011 79.333 97.9164 79.2126C98.3317 79.0922 98.7667 79.0548 99.1964 79.1024C99.6262 79.1501 100.042 79.282 100.421 79.4905C100.8 79.699 101.134 79.9801 101.404 80.3177C101.674 80.6553 101.875 81.0428 101.996 81.4581C102.116 81.8734 102.154 82.3083 102.106 82.7381C102.058 83.1679 101.926 83.584 101.718 83.9628C101.509 84.3416 101.228 84.6756 100.891 84.9458L96.4205 88.5205C94.7843 89.8298 92.774 90.5846 90.6804 90.6757C88.5868 90.7668 86.5184 90.1896 84.7746 89.0275L82.9082 87.7832C82.3269 87.3952 81.6371 87.2023 80.9387 87.2324C80.2404 87.2626 79.5698 87.5143 79.0241 87.9511L78.6686 88.2375C76.9177 89.6381 74.7422 90.4012 72.5 90.4012C70.2578 90.4012 68.0823 89.6381 66.3314 88.2375L65.9726 87.9511C65.4265 87.5148 64.7558 87.2637 64.0574 87.2341C63.3591 87.2045 62.6695 87.398 62.0885 87.7865L60.2287 89.0275C58.4845 90.1904 56.4156 90.7681 54.3213 90.6769C52.227 90.5858 50.216 89.8306 48.5795 88.5205L44.1094 84.9458C43.4276 84.4002 42.9904 83.606 42.8941 82.7381C42.7978 81.8702 43.0502 80.9995 43.5959 80.3177C44.1415 79.6359 44.9356 79.1987 45.8036 79.1024C46.6715 79.0061 47.5421 79.2586 48.224 79.8042L52.75 83.4283V54.3958C52.75 52.8829 53.048 51.3848 53.627 49.987C54.2059 48.5892 55.0546 47.3192 56.1244 46.2494C57.1942 45.1796 58.4642 44.3309 59.862 43.752C61.2598 43.173 62.7579 42.875 64.2708 42.875C65.7838 42.875 67.2819 43.173 68.6797 43.752C70.0774 44.3309 71.3475 45.1796 72.4173 46.2494C73.4871 47.3192 74.3357 48.5892 74.9147 49.987C75.4937 51.3848 75.7917 52.8829 75.7917 54.3958C75.7907 55.2348 75.4695 56.0418 74.8935 56.6518C74.3176 57.2619 73.5304 57.629 72.6929 57.6782C71.8554 57.7274 71.0307 57.4549 70.3873 56.9164C69.7439 56.3779 69.3305 55.6141 69.2314 54.781L69.2083 54.3958C69.2083 53.0863 68.6881 51.8305 67.7622 50.9045C66.8362 49.9785 65.5803 49.4583 64.2708 49.4583ZM82.375 80.7325V72.5H59.3333V81.7759C61.0328 80.8854 62.9549 80.5092 64.8646 80.6933C66.7744 80.8774 68.5892 81.6139 70.0872 82.8128L70.4427 83.0992C71.0265 83.5666 71.7521 83.8213 72.5 83.8213C73.2479 83.8213 73.9735 83.5666 74.5573 83.0992L74.9128 82.8128C75.9518 81.9802 77.1485 81.3664 78.4309 81.0083C79.7134 80.6502 81.0549 80.5553 82.375 80.7292V80.7325ZM92.306 96.5489C91.7599 96.9852 91.0891 97.2363 90.3908 97.2659C89.6924 97.2955 89.0028 97.102 88.4218 96.7135L86.562 95.4725C84.8179 94.3096 82.7489 93.7319 80.6546 93.8231C78.5603 93.9142 76.5493 94.6694 74.9128 95.9795L74.5573 96.2658C73.9735 96.7333 73.2479 96.9879 72.5 96.9879C71.7521 96.9879 71.0265 96.7333 70.4427 96.2658L70.0872 95.9795C68.451 94.6702 66.4406 93.9154 64.347 93.8243C62.2534 93.7332 60.1851 94.3104 58.4413 95.4725L56.5749 96.7168C55.9935 97.1048 55.3037 97.2977 54.6054 97.2675C53.9071 97.2374 53.2365 96.9857 52.6907 96.5489L48.224 92.9709C47.5421 92.4252 46.6715 92.1728 45.8036 92.2691C44.9356 92.3654 44.1415 92.8026 43.5959 93.4844C43.0502 94.1662 42.7978 95.0368 42.8941 95.9048C42.9904 96.7727 43.4276 97.5668 44.1094 98.1125L48.5795 101.687C50.216 102.997 52.227 103.752 54.3213 103.844C56.4156 103.935 58.4845 103.357 60.2287 102.194L62.0918 100.95C62.6731 100.562 63.3629 100.369 64.0613 100.399C64.7596 100.429 65.4302 100.681 65.9759 101.118L66.3314 101.404C68.0823 102.805 70.2578 103.568 72.5 103.568C74.7422 103.568 76.9177 102.805 78.6686 101.404L79.0274 101.118C79.5735 100.681 80.2442 100.43 80.9426 100.401C81.6409 100.371 82.3305 100.565 82.9115 100.953L84.7746 102.194C86.5184 103.356 88.5868 103.934 90.6804 103.842C92.774 103.751 94.7843 102.996 96.4205 101.687L100.891 98.1125C101.228 97.8423 101.509 97.5083 101.718 97.1295C101.926 96.7507 102.058 96.3345 102.106 95.9048C102.154 95.475 102.116 95.0401 101.996 94.6248C101.875 94.2095 101.674 93.822 101.404 93.4844C101.134 93.1468 100.8 92.8657 100.421 92.6572C100.042 92.4487 99.6262 92.3168 99.1964 92.2691C98.7667 92.2214 98.3317 92.2589 97.9164 92.3793C97.5011 92.4997 97.1136 92.7007 96.776 92.9709L92.306 96.5489Z" fill="#FF4713"/>
<defs>
<linearGradient id="paint0_linear_21_2" x1="146" y1="73" x2="-34" y2="73" gradientUnits="userSpaceOnUse">
<stop stop-color="#FF4713"/>
<stop offset="1" stop-color="#FF4713" stop-opacity="0"/>
</linearGradient>
</defs>
</svg>
