<svg width="20" height="19" viewBox="0 0 20 19" fill="none" xmlns="http://www.w3.org/2000/svg">
<g clip-path="url(#clip0_1_110)">
<path d="M10.8556 0.412427C15.5633 0.412427 19.3817 4.12552 19.3817 8.70346C19.3817 9.17877 18.9884 9.56115 18.4996 9.56115C18.0109 9.56115 17.6176 9.17877 17.6176 8.70346C17.6176 5.07256 14.5894 2.12781 10.8556 2.12781C10.3668 2.12781 9.97354 1.74542 9.97354 1.27012C9.97354 0.794815 10.3668 0.412427 10.8556 0.412427ZM11.1496 7.27397C11.4615 7.27397 11.7606 7.39446 11.9811 7.60892C12.2017 7.82339 12.3256 8.11426 12.3256 8.41756C12.3256 8.72086 12.2017 9.01174 11.9811 9.2262C11.7606 9.44067 11.4615 9.56115 11.1496 9.56115C10.8377 9.56115 10.5385 9.44067 10.318 9.2262C10.0974 9.01174 9.97354 8.72086 9.97354 8.41756C9.97354 8.11426 10.0974 7.82339 10.318 7.60892C10.5385 7.39446 10.8377 7.27397 11.1496 7.27397ZM9.97354 4.70089C9.97354 4.22559 10.3668 3.8432 10.8556 3.8432C13.6155 3.8432 15.8536 6.0196 15.8536 8.70346C15.8536 9.17877 15.4604 9.56115 14.9716 9.56115C14.4828 9.56115 14.0896 9.17877 14.0896 8.70346C14.0896 6.96663 12.6416 5.55859 10.8556 5.55859C10.3668 5.55859 9.97354 5.1762 9.97354 4.70089ZM4.88361 0.462459C5.59657 0.273052 6.3426 0.62685 6.62558 1.29156L8.0956 4.72233C8.3455 5.30485 8.17277 5.98028 7.66929 6.37697L5.85749 7.82075C7.08128 10.3367 9.17606 12.3737 11.7633 13.5637L13.2443 11.8019C13.6559 11.3123 14.3468 11.1443 14.9459 11.3873L18.4739 12.8168C19.1575 13.092 19.5213 13.8175 19.3265 14.5108L18.4445 17.6556C18.2718 18.2775 17.6911 18.7099 17.0296 18.7099C7.93757 18.7099 0.56543 11.541 0.56543 2.69961C0.56543 2.05634 1.01011 1.49169 1.64957 1.32015L4.88361 0.462459Z" fill="white"/>
</g>
<defs>
<clipPath id="clip0_1_110">
<rect width="18.8162" height="18.2975" fill="white" transform="translate(0.56543 0.412598)"/>
</clipPath>
</defs>
</svg>
