<svg width="13" height="18" viewBox="0 0 13 18" fill="none" xmlns="http://www.w3.org/2000/svg">
<path d="M12.5125 2.57143C12.7817 2.57143 13 2.35555 13 2.08929V0.482143C13 0.215879 12.7817 0 12.5125 0H0.4875C0.218278 0 0 0.215879 0 0.482143V2.28005C0 2.54632 0.218278 2.7622 0.4875 2.7622H3.952C5.06139 2.7622 5.9126 3.16229 6.42891 3.85714H0.4875C0.218278 3.85714 0 4.07302 0 4.33929V5.94643C0 6.21269 0.218278 6.42857 0.4875 6.42857H6.937C6.68444 7.87846 5.59796 8.78432 3.9 8.78432H0.4875C0.218278 8.78432 0 9.0002 0 9.26646V11.3964C0 11.531 0.056875 11.6594 0.156853 11.7507L6.86209 17.8722C6.95214 17.9544 7.07019 18 7.19274 18H10.5468C10.9906 18 11.2036 17.4613 10.8775 17.1636L4.74788 11.5677C7.85566 11.4736 10.0756 9.42232 10.3671 6.42857H12.5125C12.7817 6.42857 13 6.21269 13 5.94643V4.33929C13 4.07302 12.7817 3.85714 12.5125 3.85714H10.1282C9.9866 3.39344 9.79184 2.96333 9.54923 2.57143H12.5125Z" fill="#595959"/>
</svg>
