<svg width="30" height="30" viewBox="0 0 30 30" fill="none" xmlns="http://www.w3.org/2000/svg">
<path d="M30.0006 19.2856H18.2148V21.4285H30.0006V19.2856Z" fill="#CECAE6"/>
<path d="M30.0006 23.5715H18.2148V25.7144H30.0006V23.5715Z" fill="#CECAE6"/>
<path d="M18.2148 27.8572V30H28.9291C29.572 30 30.0006 29.5715 30.0006 28.9286V27.8572H18.2148Z" fill="#CECAE6"/>
<path d="M16.0714 18.2143C16.0714 17.5714 16.5 17.1429 17.1429 17.1429H30V15H19.2857C18.6429 15 18.2143 14.5714 18.2143 13.9286C18.2143 13.2857 18.6429 12.8571 19.2857 12.8571H30V1.07143C30 0.428571 29.5714 0 28.9286 0H13.9286V13.9286C13.9286 14.5714 13.5 15 12.8571 15H0V28.9286C0 29.5714 0.428571 30 1.07143 30H8.57143V20.3571H5.35714C4.71429 20.3571 4.28571 19.9286 4.28571 19.2857C4.28571 18.6429 4.71429 18.2143 5.35714 18.2143H9.64286C10.2857 18.2143 10.7143 18.6429 10.7143 19.2857V30H16.0714V18.2143Z" fill="#CECAE6"/>
<path d="M11.7857 12.8571V0H1.07143C0.428571 0 0 0.428571 0 1.07143V12.8571H11.7857Z" fill="#CECAE6"/>
</svg>
