<svg width="49" height="49" viewBox="0 0 49 49" fill="none" xmlns="http://www.w3.org/2000/svg">
<g filter="url(#filter0_d_296_573)">
<circle cx="24.7637" cy="22.8821" r="20" transform="rotate(-180 24.7637 22.8821)" fill="#FF4713"/>
<circle cx="24.7637" cy="22.8821" r="19.5" transform="rotate(-180 24.7637 22.8821)" stroke="white"/>
</g>
<path d="M19.2598 23.5607L28.5944 31.7861C28.7502 31.9234 28.9571 32 29.1723 32C29.3875 32 29.5944 31.9234 29.7501 31.7861L29.7602 31.7768C29.836 31.7102 29.8963 31.6301 29.9375 31.5413C29.9787 31.4525 30 31.3568 30 31.2602C30 31.1635 29.9787 31.0679 29.9375 30.9791C29.8963 30.8903 29.836 30.8102 29.7602 30.7436L20.9699 22.9985L29.7602 15.2564C29.836 15.1898 29.8963 15.1097 29.9375 15.0209C29.9787 14.9321 30 14.8365 30 14.7398C30 14.6432 29.9787 14.5475 29.9375 14.4587C29.8963 14.3699 29.836 14.2898 29.7602 14.2232L29.7501 14.2139C29.5944 14.0766 29.3875 14 29.1723 14C28.9571 14 28.7502 14.0766 28.5944 14.2139L19.2598 22.4393C19.1777 22.5116 19.1123 22.5986 19.0677 22.695C19.023 22.7914 19 22.8951 19 23C19 23.1049 19.023 23.2086 19.0677 23.305C19.1123 23.4014 19.1777 23.4884 19.2598 23.5607Z" fill="white"/>
<defs>
<filter id="filter0_d_296_573" x="0.763672" y="0.88208" width="48" height="48" filterUnits="userSpaceOnUse" color-interpolation-filters="sRGB">
<feFlood flood-opacity="0" result="BackgroundImageFix"/>
<feColorMatrix in="SourceAlpha" type="matrix" values="0 0 0 0 0 0 0 0 0 0 0 0 0 0 0 0 0 0 127 0" result="hardAlpha"/>
<feOffset dy="2"/>
<feGaussianBlur stdDeviation="2"/>
<feComposite in2="hardAlpha" operator="out"/>
<feColorMatrix type="matrix" values="0 0 0 0 0 0 0 0 0 0 0 0 0 0 0 0 0 0 0.25 0"/>
<feBlend mode="normal" in2="BackgroundImageFix" result="effect1_dropShadow_296_573"/>
<feBlend mode="normal" in="SourceGraphic" in2="effect1_dropShadow_296_573" result="shape"/>
</filter>
</defs>
</svg>
