<svg width="19" height="19" viewBox="0 0 19 19" fill="none" xmlns="http://www.w3.org/2000/svg">
<path d="M15.268 0H3.73203C2.74218 6.87131e-05 1.7929 0.393345 1.09301 1.09332C0.393121 1.79329 -4.58078e-05 2.74261 4.00305e-09 3.73246V15.2675C-4.58078e-05 16.2574 0.393121 17.2067 1.09301 17.9067C1.7929 18.6067 2.74218 18.9999 3.73203 19H15.268C16.2578 18.9999 17.2071 18.6067 17.907 17.9067C18.6069 17.2067 19 16.2574 19 15.2675V3.73246C19 2.74261 18.6069 1.79329 17.907 1.09332C17.2071 0.393345 16.2578 6.87131e-05 15.268 0ZM9.5 3.50852C9.75622 3.50852 10.0067 3.5845 10.2197 3.72685C10.4328 3.86919 10.5988 4.07151 10.6968 4.30823C10.7949 4.54494 10.8205 4.80541 10.7706 5.05671C10.7206 5.308 10.5972 5.53883 10.416 5.72C10.2349 5.90117 10.004 6.02455 9.75273 6.07454C9.50144 6.12453 9.24096 6.09887 9.00425 6.00082C8.76754 5.90277 8.56522 5.73673 8.42287 5.52369C8.28052 5.31066 8.20455 5.06019 8.20455 4.80398C8.20455 4.4604 8.34103 4.1309 8.58398 3.88795C8.82692 3.64501 9.15642 3.50852 9.5 3.50852ZM11.2813 15.5455H7.8267C7.59765 15.5455 7.37798 15.4545 7.21602 15.2925C7.05406 15.1305 6.96307 14.9109 6.96307 14.6818C6.96307 14.4528 7.05406 14.2331 7.21602 14.0711C7.37798 13.9092 7.59765 13.8182 7.8267 13.8182H8.63636V8.63636H7.8267C7.59765 8.63636 7.37798 8.54537 7.21602 8.38341C7.05406 8.22145 6.96307 8.00178 6.96307 7.77273C6.96307 7.54368 7.05406 7.32401 7.21602 7.16204C7.37798 7.00008 7.59765 6.90909 7.8267 6.90909H10.3636V13.8182H11.2813C11.5103 13.8182 11.73 13.9092 11.8919 14.0711C12.0539 14.2331 12.1449 14.4528 12.1449 14.6818C12.1449 14.9109 12.0539 15.1305 11.8919 15.2925C11.73 15.4545 11.5103 15.5455 11.2813 15.5455Z" fill="#595959"/>
</svg>
