<svg width="62" height="62" viewBox="0 0 62 62" fill="none" xmlns="http://www.w3.org/2000/svg">
<g filter="url(#filter0_d_242_623)">
<circle cx="31" cy="27" r="27" fill="#FF6813"/>
<circle cx="31" cy="27" r="25.5" stroke="white" stroke-width="3"/>
</g>
<path d="M25.25 24.1136C24.9968 24.1136 24.754 24.2142 24.575 24.3932C24.396 24.5722 24.2955 24.815 24.2955 25.0682C24.2955 25.3213 24.396 25.5641 24.575 25.7431C24.754 25.9222 24.9968 26.0227 25.25 26.0227C25.5032 26.0227 25.746 25.9222 25.925 25.7431C26.104 25.5641 26.2045 25.3213 26.2045 25.0682C26.2045 24.815 26.104 24.5722 25.925 24.3932C25.746 24.2142 25.5032 24.1136 25.25 24.1136ZM24.2955 31.75C24.2955 31.4968 24.396 31.254 24.575 31.075C24.754 30.896 24.9968 30.7955 25.25 30.7955C25.5032 30.7955 25.746 30.896 25.925 31.075C26.104 31.254 26.2045 31.4968 26.2045 31.75C26.2045 32.0032 26.104 32.246 25.925 32.425C25.746 32.604 25.5032 32.7045 25.25 32.7045C24.9968 32.7045 24.754 32.604 24.575 32.425C24.396 32.246 24.2955 32.0032 24.2955 31.75ZM20 19.5795C20 18.6302 20.3771 17.7197 21.0484 17.0484C21.7197 16.3771 22.6302 16 23.5795 16H37.4205C38.3698 16 39.2803 16.3771 39.9516 17.0484C40.6229 17.7197 41 18.6302 41 19.5795V33.4205C41 34.3698 40.6229 35.2803 39.9516 35.9516C39.2803 36.6229 38.3698 37 37.4205 37H23.5795C22.6302 37 21.7197 36.6229 21.0484 35.9516C20.3771 35.2803 20 34.3698 20 33.4205V19.5795ZM22.8636 25.0682C22.8636 25.7011 23.1151 26.3081 23.5626 26.7556C24.0101 27.2031 24.6171 27.4545 25.25 27.4545C25.8829 27.4545 26.4899 27.2031 26.9374 26.7556C27.3849 26.3081 27.6364 25.7011 27.6364 25.0682C27.6364 24.4353 27.3849 23.8283 26.9374 23.3808C26.4899 22.9332 25.8829 22.6818 25.25 22.6818C24.6171 22.6818 24.0101 22.9332 23.5626 23.3808C23.1151 23.8283 22.8636 24.4353 22.8636 25.0682ZM25.25 29.3636C24.6171 29.3636 24.0101 29.6151 23.5626 30.0626C23.1151 30.5101 22.8636 31.1171 22.8636 31.75C22.8636 32.3829 23.1151 32.9899 23.5626 33.4374C24.0101 33.8849 24.6171 34.1364 25.25 34.1364C25.8829 34.1364 26.4899 33.8849 26.9374 33.4374C27.3849 32.9899 27.6364 32.3829 27.6364 31.75C27.6364 31.1171 27.3849 30.5101 26.9374 30.0626C26.4899 29.6151 25.8829 29.3636 25.25 29.3636ZM29.5455 24.8295C29.5455 25.2247 29.8662 25.5455 30.2614 25.5455H37.4205C37.6103 25.5455 37.7924 25.47 37.9267 25.3358C38.0609 25.2015 38.1364 25.0194 38.1364 24.8295C38.1364 24.6397 38.0609 24.4576 37.9267 24.3233C37.7924 24.1891 37.6103 24.1136 37.4205 24.1136H30.2614C30.0715 24.1136 29.8894 24.1891 29.7551 24.3233C29.6209 24.4576 29.5455 24.6397 29.5455 24.8295ZM30.2614 30.7955C30.0715 30.7955 29.8894 30.8709 29.7551 31.0051C29.6209 31.1394 29.5455 31.3215 29.5455 31.5114C29.5455 31.7012 29.6209 31.8833 29.7551 32.0176C29.8894 32.1518 30.0715 32.2273 30.2614 32.2273H37.4205C37.6103 32.2273 37.7924 32.1518 37.9267 32.0176C38.0609 31.8833 38.1364 31.7012 38.1364 31.5114C38.1364 31.3215 38.0609 31.1394 37.9267 31.0051C37.7924 30.8709 37.6103 30.7955 37.4205 30.7955H30.2614ZM22.8636 19.5795C22.8636 19.9747 23.1844 20.2955 23.5795 20.2955H37.4205C37.6103 20.2955 37.7924 20.22 37.9267 20.0858C38.0609 19.9515 38.1364 19.7694 38.1364 19.5795C38.1364 19.3897 38.0609 19.2076 37.9267 19.0733C37.7924 18.9391 37.6103 18.8636 37.4205 18.8636H23.5795C23.3897 18.8636 23.2076 18.9391 23.0733 19.0733C22.9391 19.2076 22.8636 19.3897 22.8636 19.5795Z" fill="white"/>
<defs>
<filter id="filter0_d_242_623" x="0" y="0" width="62" height="62" filterUnits="userSpaceOnUse" color-interpolation-filters="sRGB">
<feFlood flood-opacity="0" result="BackgroundImageFix"/>
<feColorMatrix in="SourceAlpha" type="matrix" values="0 0 0 0 0 0 0 0 0 0 0 0 0 0 0 0 0 0 127 0" result="hardAlpha"/>
<feOffset dy="4"/>
<feGaussianBlur stdDeviation="2"/>
<feComposite in2="hardAlpha" operator="out"/>
<feColorMatrix type="matrix" values="0 0 0 0 0 0 0 0 0 0 0 0 0 0 0 0 0 0 0.25 0"/>
<feBlend mode="normal" in2="BackgroundImageFix" result="effect1_dropShadow_242_623"/>
<feBlend mode="normal" in="SourceGraphic" in2="effect1_dropShadow_242_623" result="shape"/>
</filter>
</defs>
</svg>
