<svg width="62" height="62" viewBox="0 0 62 62" fill="none" xmlns="http://www.w3.org/2000/svg">
<g filter="url(#filter0_d_242_620)">
<circle cx="31" cy="27" r="27" fill="#63D707"/>
<circle cx="31" cy="27" r="25.5" stroke="white" stroke-width="3"/>
</g>
<path d="M31.5 16C37.8515 16 43 21.1485 43 27.5C43 33.8514 37.8515 39 31.5 39C29.4677 39.0033 27.4712 38.4654 25.7155 37.4417L20.0046 39L21.5594 33.2868C20.5349 31.5306 19.9966 29.5332 20 27.5C20 21.1485 25.1486 16 31.5 16ZM27.5808 22.095L27.3508 22.1042C27.2019 22.1133 27.0564 22.1524 26.923 22.2192C26.7983 22.2898 26.6844 22.3782 26.5849 22.4814C26.4469 22.6113 26.3687 22.724 26.2848 22.8333C25.8594 23.3863 25.6304 24.0653 25.6339 24.763C25.6362 25.3265 25.7834 25.875 26.0134 26.3879C26.4837 27.4252 27.2577 28.5235 28.2789 29.5412C28.525 29.7862 28.7665 30.0323 29.0264 30.2611C30.2953 31.3783 31.8074 32.184 33.4424 32.614L34.0956 32.7141C34.3083 32.7256 34.5211 32.7095 34.735 32.6991C35.0699 32.6819 35.3969 32.5912 35.6929 32.4335C35.8435 32.3559 35.9905 32.2715 36.1334 32.1805C36.1334 32.1805 36.1828 32.1483 36.2771 32.077C36.4324 31.962 36.5278 31.8803 36.6566 31.7458C36.7521 31.6469 36.8349 31.5307 36.8981 31.3985C36.9878 31.211 37.0775 30.8534 37.1143 30.5555C37.1419 30.3278 37.1339 30.2036 37.1304 30.1266C37.1258 30.0035 37.0235 29.8759 36.9119 29.8218L36.2426 29.5217C36.2426 29.5217 35.2421 29.0858 34.6303 28.8075C34.5663 28.7796 34.4977 28.7636 34.4279 28.7604C34.3492 28.7523 34.2697 28.7612 34.1947 28.7864C34.1198 28.8115 34.051 28.8525 33.9932 28.9064C33.9875 28.9041 33.9104 28.9697 33.079 29.9771C33.0312 30.0412 32.9655 30.0897 32.8901 30.1163C32.8148 30.1429 32.7332 30.1465 32.6558 30.1266C32.5808 30.1065 32.5074 30.0811 32.4361 30.0507C32.2935 29.9909 32.2441 29.9679 32.1463 29.9265C31.4863 29.6385 30.8752 29.2493 30.3351 28.773C30.1902 28.6465 30.0556 28.5085 29.9176 28.3751C29.4652 27.9419 29.0709 27.4517 28.7446 26.9169L28.6768 26.8077C28.628 26.7343 28.5886 26.6551 28.5595 26.5719C28.5158 26.4029 28.6296 26.2672 28.6296 26.2672C28.6296 26.2672 28.9091 25.9613 29.039 25.7957C29.1655 25.6347 29.2725 25.4783 29.3415 25.3667C29.4772 25.1482 29.5197 24.924 29.4484 24.7503C29.1264 23.9637 28.7929 23.1806 28.4502 22.4032C28.3824 22.2491 28.1811 22.1387 27.9983 22.1168C27.9362 22.1099 27.8741 22.103 27.812 22.0984C27.6575 22.0908 27.5028 22.0923 27.3485 22.103L27.5797 22.0938L27.5808 22.095Z" fill="white"/>
<defs>
<filter id="filter0_d_242_620" x="0" y="0" width="62" height="62" filterUnits="userSpaceOnUse" color-interpolation-filters="sRGB">
<feFlood flood-opacity="0" result="BackgroundImageFix"/>
<feColorMatrix in="SourceAlpha" type="matrix" values="0 0 0 0 0 0 0 0 0 0 0 0 0 0 0 0 0 0 127 0" result="hardAlpha"/>
<feOffset dy="4"/>
<feGaussianBlur stdDeviation="2"/>
<feComposite in2="hardAlpha" operator="out"/>
<feColorMatrix type="matrix" values="0 0 0 0 0 0 0 0 0 0 0 0 0 0 0 0 0 0 0.25 0"/>
<feBlend mode="normal" in2="BackgroundImageFix" result="effect1_dropShadow_242_620"/>
<feBlend mode="normal" in="SourceGraphic" in2="effect1_dropShadow_242_620" result="shape"/>
</filter>
</defs>
</svg>
