<svg width="30" height="30" viewBox="0 0 30 30" fill="none" xmlns="http://www.w3.org/2000/svg">
<path d="M25 1.25H5C2.25 1.25 0 3.5 0 6.25V18.75C0 21.5 2.25 23.75 5 23.75V27.5C5 28.625 6.375 29.125 7.125 28.375L11.75 23.75H25C27.75 23.75 30 21.5 30 18.75V6.25C30 3.5 27.75 1.25 25 1.25ZM17.5 16.25H10C9.25 16.25 8.75 15.75 8.75 15C8.75 14.25 9.25 13.75 10 13.75H17.5C18.25 13.75 18.75 14.25 18.75 15C18.75 15.75 18.25 16.25 17.5 16.25ZM20 11.25H10C9.25 11.25 8.75 10.75 8.75 10C8.75 9.25 9.25 8.75 10 8.75H20C20.75 8.75 21.25 9.25 21.25 10C21.25 10.75 20.75 11.25 20 11.25Z" fill="#CECAE6"/>
</svg>
