<svg width="28" height="28" viewBox="0 0 28 28" fill="none" xmlns="http://www.w3.org/2000/svg">
<path d="M14.0039 0.376343C21.3618 0.376343 27.3261 6.34071 27.3261 13.6986C27.3261 21.0564 21.3618 27.0208 14.0039 27.0208C11.6496 27.0246 9.33666 26.4016 7.30281 25.2157L0.686988 27.0208L2.48815 20.4023C1.30127 18.3679 0.677726 16.0539 0.681659 13.6986C0.681659 6.34071 6.64603 0.376343 14.0039 0.376343ZM9.46368 7.43713L9.19723 7.44779C9.02474 7.45829 8.85616 7.50361 8.70165 7.58101C8.55713 7.66285 8.4252 7.76515 8.30997 7.88476C8.15011 8.0353 8.05951 8.16585 7.96226 8.29242C7.4695 8.93309 7.20419 9.71964 7.20822 10.5279C7.21089 11.1807 7.38141 11.8161 7.64786 12.4103C8.19274 13.612 9.08932 14.8843 10.2723 16.0633C10.5574 16.347 10.8372 16.6321 11.1383 16.8972C12.6082 18.1915 14.3599 19.1248 16.254 19.623L17.0107 19.7389C17.2572 19.7522 17.5036 19.7336 17.7514 19.7216C18.1394 19.7015 18.5183 19.5965 18.8612 19.4138C19.0356 19.324 19.2059 19.2262 19.3714 19.1207C19.3714 19.1207 19.4287 19.0834 19.538 19.0008C19.7178 18.8676 19.8284 18.773 19.9776 18.6171C20.0882 18.5026 20.1841 18.368 20.2574 18.2148C20.3613 17.9977 20.4652 17.5833 20.5078 17.2383C20.5398 16.9745 20.5305 16.8306 20.5265 16.7414C20.5211 16.5988 20.4026 16.451 20.2733 16.3883L19.498 16.0406C19.498 16.0406 18.339 15.5357 17.6302 15.2133C17.556 15.1809 17.4766 15.1624 17.3957 15.1587C17.3046 15.1493 17.2125 15.1596 17.1256 15.1888C17.0388 15.218 16.9592 15.2654 16.8922 15.3279C16.8855 15.3252 16.7962 15.4012 15.833 16.5682C15.7778 16.6425 15.7016 16.6986 15.6143 16.7295C15.527 16.7603 15.4325 16.7645 15.3428 16.7414C15.256 16.7181 15.171 16.6887 15.0883 16.6535C14.9231 16.5842 14.8658 16.5575 14.7526 16.5096C13.988 16.1759 13.2801 15.7251 12.6544 15.1734C12.4865 15.0268 12.3306 14.8669 12.1708 14.7124C11.6466 14.2105 11.1899 13.6426 10.8119 13.0231L10.7333 12.8966C10.6768 12.8115 10.6312 12.7198 10.5974 12.6235C10.5468 12.4276 10.6787 12.2704 10.6787 12.2704C10.6787 12.2704 11.0024 11.9161 11.1529 11.7242C11.2995 11.5377 11.4234 11.3565 11.5033 11.2273C11.6605 10.9742 11.7098 10.7144 11.6272 10.5132C11.2542 9.60199 10.8678 8.69475 10.4708 7.79416C10.3922 7.61565 10.1591 7.48775 9.94728 7.46244C9.87533 7.45445 9.80339 7.44645 9.73145 7.44112C9.55254 7.43224 9.37327 7.43402 9.19457 7.44645L9.46235 7.4358L9.46368 7.43713Z" fill="white"/>
</svg>
